<?xml version="1.0" encoding="utf-8"?>
<!-- Generator: Adobe Illustrator 27.0.0, SVG Export Plug-In . SVG Version: 6.00 Build 0)  -->
<svg version="1.1" id="Layer_1" xmlns="http://www.w3.org/2000/svg" xmlns:xlink="http://www.w3.org/1999/xlink" x="0px" y="0px"
	 viewBox="0 0 50 50" style="enable-background:new 0 0 50 50;" xml:space="preserve">
<g>
	<path d="M47.6,1H2.4C1.6,1,1,1.6,1,2.4v45.2C1,48.4,1.6,49,2.4,49h45.2c0.8,0,1.4-0.6,1.4-1.4V2.4C49,1.6,48.4,1,47.6,1z
		 M29.2,46.2h-5.7v-5.8h1.4c0.8,0,1.4-0.6,1.4-1.4c0-0.8-0.6-1.4-1.4-1.4h-5.6c-0.8,0-1.4,0.6-1.4,1.4c0,0.8,0.6,1.4,1.4,1.4h1.4
		v5.8h-8.4v-5.8h1.4c0.8,0,1.4-0.6,1.4-1.4c0-0.8-0.6-1.4-1.4-1.4H8.1c-0.8,0-1.4,0.6-1.4,1.4c0,0.8,0.6,1.4,1.4,1.4h1.3v5.8H3.8
		V31.9h25.4V46.2z M19.4,26.3c0.8,0,1.4,0.6,1.4,1.4v1.4h-8.4v-1.4c0-0.8,0.6-1.4,1.4-1.4H19.4z M15,19.5c0-0.8,0.7-1.5,1.5-1.5
		s1.5,0.7,1.5,1.5S17.3,21,16.5,21S15,20.3,15,19.5z M29.2,29.1h-5.6v-1.4c0-2.3-1.9-4.2-4.2-4.2h-0.8c1.5-0.8,2.4-2.3,2.4-4
		c0-2.5-2-4.5-4.5-4.5S12,17,12,19.5c0,1.7,1,3.2,2.4,4h-0.7c-2.3,0-4.2,1.9-4.2,4.2v1.4H3.8V3.8h25.4V29.1z M46.2,46.2H32V3.8h14.2
		V46.2z"/>
	<path d="M36,29c1.1,0,2-0.6,2-1.2v-2.5c0-0.7-0.9-1.2-2-1.2s-2,0.6-2,1.2v2.5C34,28.4,34.9,29,36,29z"/>
</g>
</svg>
