<?xml version="1.0" encoding="utf-8"?>
<!-- Generator: Adobe Illustrator 27.0.0, SVG Export Plug-In . SVG Version: 6.00 Build 0)  -->
<svg version="1.1" id="Layer_1" xmlns="http://www.w3.org/2000/svg" xmlns:xlink="http://www.w3.org/1999/xlink" x="0px" y="0px"
	 viewBox="0 0 52 52" style="enable-background:new 0 0 52 52;" xml:space="preserve">
<path d="M50,24.4H31.4l-0.5-3.8c3.1,0,4.9-0.2,6.2-1.5c1.5-1.5,1.5-3.6,1.5-7.3V9.3c0-3.7,0-5.8-1.5-7.3c-1.5-1.5-3.6-1.5-7.3-1.5
	h-9.6c-3.7,0-5.8,0-7.3,1.5c-1.5,1.5-1.5,3.6-1.5,7.3v2.4c0,3.7,0,5.8,1.5,7.3c1.5,1.5,3.6,1.5,7.3,1.5h1l-0.5,3.8H2
	c-0.9,0-1.6,0.7-1.6,1.6s0.7,1.6,1.6,1.6h2.4V50c0,0.9,0.7,1.6,1.6,1.6s1.6-0.7,1.6-1.6V27.6H22c0,0,0,0,0,0c0,0,0,0,0,0h2.4v0.6
	c0,4.5,0,6.9,2,8.7c1.9,1.7,4.5,1.7,9.6,1.7h8.4V50c0,0.9,0.7,1.6,1.6,1.6s1.6-0.7,1.6-1.6V27.6H50c0.9,0,1.6-0.7,1.6-1.6
	S50.9,24.4,50,24.4z M15.2,16.8c-0.6-0.6-0.6-2.3-0.6-5.1V9.3c0-2.8,0-4.5,0.6-5.1c0.6-0.6,2.2-0.6,5-0.6h9.6c2.8,0,4.4,0,5,0.6
	c0.6,0.6,0.6,2.3,0.6,5.1v2.4c0,2.8,0,4.5-0.6,5.1c-0.6,0.6-2.2,0.6-5,0.6h-9.6C17.4,17.4,15.8,17.4,15.2,16.8z M24.4,20.6h3.2
	l0.5,3.8h-4.3L24.4,20.6z M44.4,35.4H36c-4.2,0-6.5,0-7.5-0.9c-0.9-0.8-0.9-2.4-0.9-6.3v-0.6H30c0,0,0,0,0,0c0,0,0,0,0,0h14.4V35.4z
	"/>
</svg>
