<?xml version="1.0" encoding="utf-8"?>
<!-- Generator: Adobe Illustrator 27.0.0, SVG Export Plug-In . SVG Version: 6.00 Build 0)  -->
<svg version="1.1" id="Layer_1" xmlns="http://www.w3.org/2000/svg" xmlns:xlink="http://www.w3.org/1999/xlink" x="0px" y="0px"
	 viewBox="0 0 50 50" style="enable-background:new 0 0 50 50;" xml:space="preserve">
<style type="text/css">
	.st0{fill-rule:evenodd;clip-rule:evenodd;}
</style>
<path class="st0" d="M38.3,8.3h-1.7V6.7C36.7,5.8,35.9,5,35,5s-1.7,0.8-1.7,1.7v1.7H16.7V6.7C16.7,5.8,15.9,5,15,5s-1.7,0.8-1.7,1.7
	v1.7h-1.7C8,8.3,5,11.3,5,15v23.3C5,42,8,45,11.7,45h26.7c3.7,0,6.7-3,6.7-6.7V15C45,11.3,42,8.3,38.3,8.3z M41.7,38.3
	c0,1.8-1.5,3.3-3.3,3.3H11.7c-1.8,0-3.3-1.5-3.3-3.3V21.7h33.3V38.3z M41.7,18.3H8.3V15c0-1.8,1.5-3.3,3.3-3.3h1.7v1.7
	c0,0.9,0.8,1.7,1.7,1.7s1.7-0.8,1.7-1.7v-1.7h16.7v1.7c0,0.9,0.8,1.7,1.7,1.7s1.7-0.8,1.7-1.7v-1.7h1.7c1.8,0,3.3,1.5,3.3,3.3V18.3z
	"/>
</svg>
