<?xml version="1.0" encoding="utf-8"?>
<!-- Generator: Adobe Illustrator 27.0.0, SVG Export Plug-In . SVG Version: 6.00 Build 0)  -->
<svg version="1.1" id="Layer_1" xmlns="http://www.w3.org/2000/svg" xmlns:xlink="http://www.w3.org/1999/xlink" x="0px" y="0px"
	 viewBox="0 0 50 50" style="enable-background:new 0 0 50 50;" xml:space="preserve">
<style type="text/css">
	.st0{fill-rule:evenodd;clip-rule:evenodd;}
</style>
<g>
	<path class="st0" d="M20.3,3.1H6.2c-1.7,0-3.1,1.4-3.1,3.1v21.9c0,1.7,1.4,3.1,3.1,3.1h14.1c1.7,0,3.1-1.4,3.1-3.1V6.2
		C23.4,4.5,22,3.1,20.3,3.1z M20.3,28.1H6.2V6.2h14.1V28.1z"/>
	<path class="st0" d="M43.8,3.1H29.7c-1.7,0-3.1,1.4-3.1,3.1v6.2c0,1.7,1.4,3.1,3.1,3.1h14.1c1.7,0,3.1-1.4,3.1-3.1V6.2
		C46.9,4.5,45.5,3.1,43.8,3.1z M43.8,12.5H29.7V6.2h14.1V12.5z"/>
	<path class="st0" d="M43.8,18.8H29.7c-1.7,0-3.1,1.4-3.1,3.1v21.9c0,1.7,1.4,3.1,3.1,3.1h14.1c1.7,0,3.1-1.4,3.1-3.1V21.9
		C46.9,20.1,45.5,18.8,43.8,18.8z M43.8,43.8H29.7V21.9h14.1V43.8z"/>
	<path class="st0" d="M20.3,34.4H6.2c-1.7,0-3.1,1.4-3.1,3.1v6.2c0,1.7,1.4,3.1,3.1,3.1h14.1c1.7,0,3.1-1.4,3.1-3.1v-6.2
		C23.4,35.8,22,34.4,20.3,34.4z M20.3,43.8H6.2v-6.2h14.1V43.8z"/>
</g>
</svg>
