<?xml version="1.0" encoding="utf-8"?>
<!-- Generator: Adobe Illustrator 27.0.0, SVG Export Plug-In . SVG Version: 6.00 Build 0)  -->
<svg version="1.1" id="Layer_1" xmlns="http://www.w3.org/2000/svg" xmlns:xlink="http://www.w3.org/1999/xlink" x="0px" y="0px"
	 viewBox="0 0 50 50" style="enable-background:new 0 0 50 50;" xml:space="preserve">
<g>
	<path d="M43.3,2H28.4c-1.3,0-2.5,0.5-3.4,1.4C24.1,2.5,22.9,2,21.6,2H6.7C4.1,2,2,4.1,2,6.7v36.6C2,45.9,4.1,48,6.7,48h14.9
		c1.3,0,2.5-0.5,3.4-1.4c0.9,0.9,2.1,1.4,3.4,1.4h14.9c2.6,0,4.7-2.1,4.7-4.7V6.7C48,4.1,45.9,2,43.3,2z M23.7,43.3c0,1.1-0.9,2-2,2
		H6.7c-1.1,0-2-0.9-2-2V6.7c0-1.1,0.9-2,2-2h14.9c1.1,0,2,0.9,2,2V43.3z M45.3,43.3c0,1.1-0.9,2-2,2H28.4c-1.1,0-2-0.9-2-2V6.7
		c0-1.1,0.9-2,2-2h14.9c1.1,0,2,0.9,2,2V43.3z"/>
	<path d="M19.6,10H8.4C7.6,10,7,10.7,7,11.5C7,12.3,7.6,13,8.4,13h11.2c0.8,0,1.4-0.7,1.4-1.5C21,10.7,20.4,10,19.6,10z"/>
	<path d="M19.6,16H8.4C7.6,16,7,16.4,7,17s0.6,1,1.4,1h11.2c0.8,0,1.4-0.4,1.4-1S20.4,16,19.6,16z"/>
	<path d="M19.6,21H8.4C7.6,21,7,21.7,7,22.5C7,23.3,7.6,24,8.4,24h11.2c0.8,0,1.4-0.7,1.4-1.5C21,21.7,20.4,21,19.6,21z"/>
	<path d="M41.6,10H30.4c-0.8,0-1.4,0.7-1.4,1.5c0,0.8,0.6,1.5,1.4,1.5h11.2c0.8,0,1.4-0.7,1.4-1.5C43,10.7,42.4,10,41.6,10z"/>
	<path d="M41.6,16H30.4c-0.8,0-1.4,0.4-1.4,1s0.6,1,1.4,1h11.2c0.8,0,1.4-0.4,1.4-1S42.4,16,41.6,16z"/>
	<path d="M41.6,21H30.4c-0.8,0-1.4,0.7-1.4,1.5c0,0.8,0.6,1.5,1.4,1.5h11.2c0.8,0,1.4-0.7,1.4-1.5C43,21.7,42.4,21,41.6,21z"/>
	<path d="M19.5,29c-0.8,0-1.5,0.6-1.5,1.3v5.3c0,0.7,0.7,1.3,1.5,1.3c0.8,0,1.5-0.6,1.5-1.3v-5.3C21,29.6,20.3,29,19.5,29z"/>
	<path d="M41.5,29c-0.8,0-1.5,0.6-1.5,1.3v5.3c0,0.7,0.7,1.3,1.5,1.3c0.8,0,1.5-0.6,1.5-1.3v-5.3C43,29.6,42.3,29,41.5,29z"/>
</g>
</svg>
