<svg width="50" height="50" viewBox="0 0 50 50" fill="none" xmlns="http://www.w3.org/2000/svg">
<path d="M18.3369 36.2446L20.2731 45.93C20.46 46.8669 19.8508 47.7785 18.9162 47.9654C18.8008 47.9885 18.6854 48 18.5746 48C17.7669 48 17.0446 47.43 16.8808 46.6085L14.9446 36.9254C14.8915 36.6577 14.6515 36.4615 14.3792 36.4615H6.46154V46.2692C6.46154 47.2246 5.68615 48 4.73077 48C3.77538 48 3 47.2246 3 46.2692V25.5C3 24.5446 3.77538 23.7692 4.73077 23.7692C5.68615 23.7692 6.46154 24.5446 6.46154 25.5V33H14.3792C16.2969 33 17.9631 34.3638 18.3392 36.2446H18.3369ZM46.2692 23.7692C45.3138 23.7692 44.5385 24.5446 44.5385 25.5V33H36.6208C34.7031 33 33.0369 34.3638 32.6608 36.2469L30.7246 45.93C30.5377 46.8669 31.1469 47.7785 32.0815 47.9654C32.1969 47.9885 32.3123 48 32.4231 48C33.2308 48 33.9531 47.43 34.1169 46.6085L36.0531 36.9254C36.1062 36.6554 36.3462 36.4615 36.6185 36.4615H44.5362V46.2692C44.5362 47.2246 45.3115 48 46.2669 48C47.2223 48 47.9977 47.2246 47.9977 46.2692V25.5C47.9977 24.5446 47.2246 23.7692 46.2692 23.7692ZM36.4615 27.8077C36.4615 26.8523 35.6862 26.0769 34.7308 26.0769H16.2692C15.3138 26.0769 14.5385 26.8523 14.5385 27.8077C14.5385 28.7631 15.3138 29.5385 16.2692 29.5385H23.7692V46.2692C23.7692 47.2246 24.5446 48 25.5 48C26.4554 48 27.2308 47.2246 27.2308 46.2692V29.5385H34.7308C35.6862 29.5385 36.4615 28.7631 36.4615 27.8077ZM12.2308 16.2692V7.03846C12.2308 4.81154 14.0423 3 16.2692 3H34.7308C36.9577 3 38.7692 4.81154 38.7692 7.03846V16.2692C38.7692 18.4962 36.9577 20.3077 34.7308 20.3077H16.2692C14.0423 20.3077 12.2308 18.4962 12.2308 16.2692ZM15.6923 16.2692C15.6923 16.5877 15.9508 16.8462 16.2692 16.8462H34.7308C35.0492 16.8462 35.3077 16.5877 35.3077 16.2692V7.03846C35.3077 6.72 35.0492 6.46154 34.7308 6.46154H16.2692C15.9508 6.46154 15.6923 6.72 15.6923 7.03846V16.2692Z" fill="black"/>
</svg>
