<svg width="32" height="32" viewBox="0 0 32 32" fill="none" xmlns="http://www.w3.org/2000/svg">
<path d="M6.5 23.9765V12.061C6.5 8.85028 6.5 7.24491 7.48852 6.24746C8.47703 5.25 10.068 5.25 13.25 5.25H17.75C20.9319 5.25 22.5229 5.25 23.5115 6.24746C24.5 7.24491 24.5 8.85028 24.5 12.061V23.9765C24.5 25.6772 24.5 26.5275 23.9803 26.8622C23.131 27.4092 21.8181 26.2621 21.1577 25.8457C20.6121 25.5016 20.3394 25.3296 20.0366 25.3197C19.7094 25.3089 19.4318 25.4739 18.8423 25.8457L16.6925 27.2014C16.1126 27.5671 15.8226 27.75 15.5 27.75C15.1774 27.75 14.8874 27.5671 14.3075 27.2014L12.1578 25.8457C11.6122 25.5016 11.3394 25.3296 11.0366 25.3197C10.7094 25.3089 10.4318 25.4739 9.84223 25.8457C9.18194 26.2621 7.86898 27.4092 7.01969 26.8622C6.5 26.5275 6.5 25.6772 6.5 23.9765Z" stroke="black" stroke-width="2" stroke-linecap="round" stroke-linejoin="round"/>
<path d="M14.375 15.375H11" stroke="black" stroke-width="2" stroke-linecap="round" stroke-linejoin="round"/>
<path d="M17.75 10.875H11" stroke="black" stroke-width="2" stroke-linecap="round" stroke-linejoin="round"/>
</svg>
