<svg width="32" height="32" viewBox="0 0 32 32" fill="none" xmlns="http://www.w3.org/2000/svg">
<path d="M22.4001 4.7998V7.19981M9.6001 4.7998V7.19981" stroke="black" stroke-width="1.8" stroke-linecap="round" stroke-linejoin="round"/>
<path d="M5.6001 11.2002L26.4001 11.2002" stroke="black" stroke-width="1.8" stroke-linecap="round" stroke-linejoin="round"/>
<path d="M5.6001 16.1082C5.6001 11.1546 5.6001 8.67785 6.97084 7.13897C8.34158 5.6001 10.5478 5.6001 14.9601 5.6001L17.0401 5.6001C21.4524 5.6001 23.6587 5.6001 25.0294 7.13897C26.4001 8.67785 26.4001 11.1546 26.4001 16.1082V16.692C26.4001 21.6456 26.4001 24.1223 25.0294 25.6613C23.6587 27.2001 21.4524 27.2001 17.0401 27.2001H14.9601C10.5478 27.2001 8.34158 27.2001 6.97084 25.6613C5.6001 24.1223 5.6001 21.6456 5.6001 16.692V16.1082Z" stroke="black" stroke-width="1.8" stroke-linecap="round" stroke-linejoin="round"/>
</svg>
