<svg width="32" height="30" viewBox="0 0 32 30" fill="none" xmlns="http://www.w3.org/2000/svg">
<path d="M27.8836 23C28.9327 23 29.7671 22.3713 30.5162 21.4921C32.0499 19.6925 29.5319 18.2544 28.5714 17.5501C27.5952 16.8341 26.5052 16.4285 25.4 16.3333M24 13.6667C25.933 13.6667 27.5 12.1743 27.5 10.3333C27.5 8.49239 25.933 7 24 7" stroke="black" stroke-width="2" stroke-linecap="round"/>
<path d="M3.96795 23C2.96887 23 2.17423 22.3713 1.46072 21.4921C0.000121951 19.6925 2.39823 18.2544 3.31286 17.5501C4.24263 16.8341 5.28077 16.4285 6.33333 16.3333M7 13.6667C5.15905 13.6667 3.66667 12.1743 3.66667 10.3333C3.66667 8.49239 5.15905 7 7 7" stroke="black" stroke-width="2" stroke-linecap="round"/>
<path d="M10.5776 19.4816C9.1628 20.324 5.45336 22.0441 7.71266 24.1965C8.81631 25.248 10.0455 26 11.5909 26H20.4092C21.9545 26 23.1837 25.248 24.2873 24.1965C26.5466 22.0441 22.8372 20.324 21.4224 19.4816C18.1048 17.5061 13.8951 17.5061 10.5776 19.4816Z" stroke="black" stroke-width="2" stroke-linecap="round" stroke-linejoin="round"/>
<path d="M21 8.5C21 10.9853 18.7614 13 16 13C13.2386 13 11 10.9853 11 8.5C11 6.01471 13.2386 4 16 4C18.7614 4 21 6.01471 21 8.5Z" stroke="black" stroke-width="2"/>
</svg>
