<svg width="32" height="32" viewBox="0 0 32 32" fill="none" xmlns="http://www.w3.org/2000/svg">
<path d="M19.4307 20.0249H12.5867C12.136 20.0249 11.7719 20.4015 11.7719 20.8648C11.7719 21.328 12.136 21.7047 12.5867 21.7047H19.4307C19.8801 21.7047 20.2454 21.328 20.2454 20.8648C20.2454 20.4015 19.8801 20.0249 19.4307 20.0249Z" fill="black"/>
<path d="M25.3263 10.9946L18.4008 5.80709C16.9737 4.73097 15.0362 4.73097 13.609 5.80709L6.68356 10.9946C5.24883 12.0629 4.65047 13.9645 5.20425 15.6981L7.85095 24.0971C8.39202 25.8307 9.95917 27.0039 11.7263 27H20.2839C22.0535 26.9987 23.6179 25.8176 24.1527 24.08L26.7994 15.681C27.3456 13.9553 26.7509 12.0617 25.3263 10.9946ZM25.255 15.1706L22.6121 23.5696H22.6108C22.2837 24.609 21.3441 25.3124 20.2837 25.3098H11.7261C10.6656 25.3124 9.72609 24.609 9.39892 23.5696L6.75602 15.1706C6.42503 14.1326 6.78403 12.9921 7.64209 12.3517L14.5676 7.16416C15.4231 6.51979 16.5867 6.51979 17.4422 7.16416L24.3676 12.3517C25.2257 12.9921 25.5847 14.1326 25.2537 15.1706H25.255Z" fill="black"/>
</svg>
