<svg width="32" height="32" viewBox="0 0 32 32" fill="none" xmlns="http://www.w3.org/2000/svg">
<path fill-rule="evenodd" clip-rule="evenodd" d="M11.625 5.75C9.20875 5.75 7.25 7.70875 7.25 10.125L7.25 25.875C7.25 28.2912 9.20875 30.25 11.625 30.25H18.9917C19.8767 30.6127 20.9467 30.8248 22.0993 30.8248C25.1457 30.8248 27.6152 29.3431 27.6152 27.5152C27.6152 26.1147 26.1654 24.9174 24.1171 24.4341C23.4921 24.2867 22.8115 24.2057 22.0993 24.2057C21.3871 24.2057 20.7064 24.2867 20.0815 24.4341C18.0332 24.9174 16.5833 26.1147 16.5833 27.5152C16.5833 27.8582 16.6703 28.1889 16.8316 28.5H11.625C10.1753 28.5 9 27.3247 9 25.875L9 10.125C9 8.67525 10.1753 7.5 11.625 7.5H16.3003C16.4951 7.5 16.6878 7.52167 16.875 7.56368V11.875C16.875 13.3247 18.0503 14.5 19.5 14.5H23V16.6074C22.7136 16.5266 22.4115 16.4833 22.0993 16.4833C20.2715 16.4833 18.7897 17.9651 18.7897 19.7929C18.7897 20.9753 19.4098 22.0129 20.3425 22.5982C20.8516 22.9177 21.4539 23.1025 22.0993 23.1025C22.7447 23.1025 23.347 22.9177 23.8561 22.5982C24.7888 22.0129 25.4088 20.9753 25.4088 19.7929C25.4088 19.0496 25.1638 18.3634 24.75 17.8109V14.1997C24.75 13.0394 24.2891 11.9266 23.4686 11.1062L19.3938 7.03141C18.5734 6.21094 17.4606 5.75 16.3003 5.75H11.625ZM22.5634 12.75C22.4672 12.6048 22.3561 12.4686 22.2312 12.3436L18.625 8.73744V11.875C18.625 12.3582 19.0168 12.75 19.5 12.75H22.5634ZM23.6588 19.7929C23.6588 20.6542 22.9606 21.3525 22.0993 21.3525C21.238 21.3525 20.5397 20.6542 20.5397 19.7929C20.5397 18.9316 21.238 18.2333 22.0993 18.2333C22.9606 18.2333 23.6588 18.9316 23.6588 19.7929ZM25.8652 27.5152C25.8652 27.573 25.8171 27.9242 25.0993 28.3548C24.4163 28.7646 23.3598 29.0748 22.0993 29.0748C20.8387 29.0748 19.7823 28.7646 19.0993 28.3548C18.3815 27.9242 18.3333 27.573 18.3333 27.5152C18.3333 27.4575 18.3815 27.1063 19.0993 26.6756C19.7823 26.2659 20.8387 25.9557 22.0993 25.9557C23.3598 25.9557 24.4163 26.2659 25.0993 26.6756C25.8171 27.1063 25.8652 27.4575 25.8652 27.5152Z" fill="black"/>
</svg>
