<svg width="32" height="32" viewBox="0 0 32 32" fill="none" xmlns="http://www.w3.org/2000/svg">
<path d="M8.10714 11.5714C7.65348 11.5714 7.28571 11.9392 7.28571 12.3929C7.28571 12.8465 7.65348 13.2143 8.10714 13.2143H15.5C15.9537 13.2143 16.3214 12.8465 16.3214 12.3929C16.3214 11.9392 15.9537 11.5714 15.5 11.5714H8.10714Z" fill="black"/>
<path d="M7.28571 18.9643C7.28571 18.5106 7.65348 18.1429 8.10714 18.1429H9.75C10.2037 18.1429 10.5714 18.5106 10.5714 18.9643C10.5714 19.4179 10.2037 19.7857 9.75 19.7857H8.10714C7.65348 19.7857 7.28571 19.4179 7.28571 18.9643Z" fill="black"/>
<path d="M13.0357 18.1429C12.5821 18.1429 12.2143 18.5106 12.2143 18.9643C12.2143 19.4179 12.5821 19.7857 13.0357 19.7857H19.6071C20.0608 19.7857 20.4286 19.4179 20.4286 18.9643C20.4286 18.5106 20.0608 18.1429 19.6071 18.1429H13.0357Z" fill="black"/>
<path d="M14.6786 15.6786C14.6786 15.2249 15.0463 14.8571 15.5 14.8571H22.8929C23.3465 14.8571 23.7143 15.2249 23.7143 15.6786C23.7143 16.1322 23.3465 16.5 22.8929 16.5H15.5C15.0463 16.5 14.6786 16.1322 14.6786 15.6786Z" fill="black"/>
<path d="M19.6071 21.4286C19.1535 21.4286 18.7857 21.7963 18.7857 22.25C18.7857 22.7037 19.1535 23.0714 19.6071 23.0714H22.0714C22.5251 23.0714 22.8929 22.7037 22.8929 22.25C22.8929 21.7963 22.5251 21.4286 22.0714 21.4286H19.6071Z" fill="black"/>
<path fill-rule="evenodd" clip-rule="evenodd" d="M4 8.28571V24.7143C4 26.5289 5.47106 28 7.28571 28H23.7143C25.5289 28 27 26.5289 27 24.7143V8.28571C27 6.47106 25.5289 5 23.7143 5H7.28571C5.47106 5 4 6.47106 4 8.28571ZM7.28571 6.64286C6.37839 6.64286 5.64286 7.37839 5.64286 8.28571L25.3571 8.28571C25.3571 7.37839 24.6216 6.64286 23.7143 6.64286H7.28571ZM25.3571 24.7143V9.92857H5.64286V24.7143C5.64286 25.6216 6.37839 26.3571 7.28571 26.3571H23.7143C24.6216 26.3571 25.3571 25.6216 25.3571 24.7143Z" fill="black"/>
</svg>
