<svg width="32" height="32" viewBox="0 0 32 32" fill="none" xmlns="http://www.w3.org/2000/svg">
<path d="M10.9688 17.4062C10.9688 16.9057 11.3745 16.5 11.875 16.5H19.125C19.6255 16.5 20.0312 16.9057 20.0312 17.4062C20.0312 17.9068 19.6255 18.3125 19.125 18.3125H11.875C11.3745 18.3125 10.9688 17.9068 10.9688 17.4062Z" fill="black"/>
<path d="M11.875 21.9375C11.3745 21.9375 10.9688 22.3432 10.9688 22.8438C10.9688 23.3443 11.3745 23.75 11.875 23.75H19.125C19.6255 23.75 20.0312 23.3443 20.0312 22.8438C20.0312 22.3432 19.6255 21.9375 19.125 21.9375H11.875Z" fill="black"/>
<path fill-rule="evenodd" clip-rule="evenodd" d="M10.9688 3.8125C8.46621 3.8125 6.4375 5.84121 6.4375 8.34375V24.6562C6.4375 27.1588 8.46621 29.1875 10.9688 29.1875H20.0312C22.5338 29.1875 24.5625 27.1588 24.5625 24.6562V12.564C24.5625 11.3623 24.0851 10.2097 23.2353 9.35995L19.0151 5.13967C18.1653 4.2899 17.0127 3.8125 15.811 3.8125H10.9688ZM8.25 8.34375C8.25 6.84223 9.46723 5.625 10.9688 5.625H15.811C16.0128 5.625 16.2124 5.64745 16.4062 5.69096V10.1562C16.4062 11.6578 17.6235 12.875 19.125 12.875H22.75V24.6562C22.75 26.1578 21.5328 27.375 20.0312 27.375H10.9688C9.46723 27.375 8.25 26.1578 8.25 24.6562V8.34375ZM22.2978 11.0625C22.1982 10.9121 22.0831 10.771 21.9537 10.6416L18.2188 6.90663V10.1562C18.2188 10.6568 18.6245 11.0625 19.125 11.0625H22.2978Z" fill="black"/>
</svg>
