<svg width="32" height="32" viewBox="0 0 32 32" fill="none" xmlns="http://www.w3.org/2000/svg">
<path fill-rule="evenodd" clip-rule="evenodd" d="M20.4841 16C20.4841 18.3669 18.5653 20.2857 16.1984 20.2857C13.8315 20.2857 11.9127 18.3669 11.9127 16C11.9127 13.6331 13.8315 11.7143 16.1984 11.7143C18.5653 11.7143 20.4841 13.6331 20.4841 16ZM18.7698 16C18.7698 17.4202 17.6186 18.5714 16.1984 18.5714C14.7783 18.5714 13.627 17.4202 13.627 16C13.627 14.5798 14.7783 13.4286 16.1984 13.4286C17.6186 13.4286 18.7698 14.5798 18.7698 16Z" fill="black"/>
<path fill-rule="evenodd" clip-rule="evenodd" d="M12.8 6.2257C12.8 5.0038 13.7906 4 15.0125 4H17.3843C18.6062 4 19.5968 5.0038 19.5968 6.22569C19.5968 7.9166 21.4305 8.99344 22.8916 8.14238C23.9432 7.52984 25.2925 7.89136 25.8969 8.94763L27.1028 11.0548C27.7092 12.1145 27.3474 13.4649 26.2924 14.0794C24.8205 14.9368 24.8205 17.0632 26.2924 17.9206C27.3474 18.5351 27.7092 19.8855 27.1028 20.9452L25.8969 23.0524C25.2925 24.1087 23.9432 24.4702 22.8916 23.8576C21.4305 23.0066 19.5968 24.0834 19.5968 25.7743C19.5968 26.9962 18.6062 28 17.3843 28H15.0125C13.7906 28 12.8 26.9962 12.8 25.7743C12.8 24.0834 10.9663 23.0066 9.50517 23.8576C8.45355 24.4702 7.10426 24.1086 6.49979 23.0524L5.29391 20.9452C4.68751 19.8855 5.04934 18.5351 6.10431 17.9206C7.57624 17.0632 7.57624 14.9368 6.10431 14.0794C5.04934 13.4649 4.68751 12.1145 5.29391 11.0548L6.49979 8.94765C7.10426 7.89138 8.45355 7.52985 9.50517 8.14239C10.9663 8.99346 12.8 7.91662 12.8 6.2257ZM15.0125 5.71429H17.3843C17.6462 5.71429 17.8825 5.93722 17.8825 6.22569C17.8825 9.20852 21.1241 11.1558 23.7544 9.62369C23.9835 9.49027 24.2774 9.56902 24.4091 9.79909L25.6149 11.9063C25.7536 12.1487 25.6709 12.4575 25.4296 12.5981C22.8224 14.1167 22.8224 17.8833 25.4296 19.4019C25.6709 19.5425 25.7536 19.8513 25.6149 20.0937L24.4091 22.2009C24.2774 22.431 23.9835 22.5098 23.7544 22.3763C21.1241 20.8442 17.8825 22.7915 17.8825 25.7743C17.8825 26.0628 17.6462 26.2857 17.3843 26.2857H15.0125C14.7506 26.2857 14.5143 26.0628 14.5143 25.7743C14.5143 22.7914 11.2727 20.8442 8.64233 22.3763C8.41326 22.5097 8.11934 22.431 7.98767 22.2009L6.78179 20.0937C6.64309 19.8513 6.72585 19.5425 6.96715 19.4019C9.57435 17.8833 9.57435 14.1167 6.96715 12.5981C6.72585 12.4575 6.64309 12.1487 6.78179 11.9063L7.98767 9.79912C8.11934 9.56903 8.41326 9.49027 8.64234 9.6237C11.2727 11.1558 14.5143 9.20856 14.5143 6.2257C14.5143 5.93723 14.7506 5.71429 15.0125 5.71429Z" fill="black"/>
</svg>
