<svg width="32" height="32" viewBox="0 0 32 32" fill="none" xmlns="http://www.w3.org/2000/svg">
<path fill-rule="evenodd" clip-rule="evenodd" d="M15.5 5.78571C11.5551 5.78571 8.35714 8.98368 8.35714 12.9286L8.35714 18.2857C8.35714 19.765 7.15791 20.9643 5.67857 20.9643C4.19924 20.9643 3 19.765 3 18.2857L3 14.7143C3 13.235 4.19924 12.0357 5.67857 12.0357C6.00266 12.0357 6.3133 12.0933 6.60083 12.1987C6.97215 7.60898 10.8146 4 15.5 4C20.1854 4 24.0278 7.60898 24.3992 12.1987C24.6867 12.0933 24.9973 12.0357 25.3214 12.0357C26.8008 12.0357 28 13.235 28 14.7143L28 18.2857C28 19.765 26.8008 20.9643 25.3214 20.9643C25.0084 20.9643 24.7078 20.9106 24.4286 20.8119V22.75C24.4286 24.7224 22.8296 26.3214 20.8571 26.3214H18.9589C18.5624 27.8618 17.1641 29 15.5 29C13.5276 29 11.9286 27.401 11.9286 25.4286C11.9286 23.4561 13.5276 21.8571 15.5 21.8571C17.1641 21.8571 18.5624 22.9953 18.9589 24.5357H20.8571C21.8434 24.5357 22.6429 23.7362 22.6429 22.75L22.6429 12.9286C22.6429 8.98368 19.4449 5.78571 15.5 5.78571ZM24.4286 18.2857C24.4286 18.7788 24.8283 19.1786 25.3214 19.1786C25.8145 19.1786 26.2143 18.7788 26.2143 18.2857L26.2143 14.7143C26.2143 14.2212 25.8145 13.8214 25.3214 13.8214C24.8283 13.8214 24.4286 14.2212 24.4286 14.7143L24.4286 18.2857ZM5.67857 13.8214C6.17168 13.8214 6.57143 14.2212 6.57143 14.7143V18.2857C6.57143 18.7788 6.17168 19.1786 5.67857 19.1786C5.18546 19.1786 4.78571 18.7788 4.78571 18.2857V14.7143C4.78571 14.2212 5.18546 13.8214 5.67857 13.8214ZM15.5 27.2143C16.4862 27.2143 17.2857 26.4148 17.2857 25.4286C17.2857 24.4423 16.4862 23.6429 15.5 23.6429C14.5138 23.6429 13.7143 24.4423 13.7143 25.4286C13.7143 26.4148 14.5138 27.2143 15.5 27.2143Z" fill="black"/>
</svg>
