<svg width="31" height="31" viewBox="0 0 31 31" fill="none" xmlns="http://www.w3.org/2000/svg">
<path fill-rule="evenodd" clip-rule="evenodd" d="M20.4 5.53846C20.4 8.59727 17.9823 11.0769 15 11.0769C12.0177 11.0769 9.6 8.59727 9.6 5.53846C9.6 2.47965 12.0177 0 15 0C17.9823 0 20.4 2.47965 20.4 5.53846ZM18.6 5.53846C18.6 7.57767 16.9882 9.23077 15 9.23077C13.0118 9.23077 11.4 7.57767 11.4 5.53846C11.4 3.49926 13.0118 1.84615 15 1.84615C16.9882 1.84615 18.6 3.49926 18.6 5.53846Z" fill="black"/>
<path fill-rule="evenodd" clip-rule="evenodd" d="M24 18.4615C24 21.5203 19.9706 24 15 24C10.0294 24 6 21.5203 6 18.4615C6 15.4027 10.0294 12.9231 15 12.9231C19.9706 12.9231 24 15.4027 24 18.4615ZM22.2 18.4615C22.2 19.0877 21.7782 19.97 20.4379 20.7948C19.1334 21.5975 17.2151 22.1538 15 22.1538C12.7849 22.1538 10.8666 21.5975 9.56213 20.7948C8.22185 19.97 7.8 19.0877 7.8 18.4615C7.8 17.8354 8.22185 16.9531 9.56213 16.1283C10.8666 15.3256 12.7849 14.7692 15 14.7692C17.2151 14.7692 19.1334 15.3256 20.4379 16.1283C21.7782 16.9531 22.2 17.8354 22.2 18.4615Z" fill="black"/>
</svg>
