<svg width="31" height="31" viewBox="0 0 31 31" fill="none" xmlns="http://www.w3.org/2000/svg">
<path d="M6.5 22.9765L6.5 11.061C6.5 7.85028 6.5 6.24491 7.48852 5.24746C8.47703 4.25 10.068 4.25 13.25 4.25L17.75 4.25C20.9319 4.25 22.5229 4.25 23.5115 5.24746C24.5 6.24491 24.5 7.85028 24.5 11.061L24.5 22.9765C24.5 24.6772 24.5 25.5275 23.9803 25.8622C23.131 26.4092 21.8181 25.2621 21.1577 24.8457C20.6121 24.5016 20.3394 24.3296 20.0366 24.3197C19.7094 24.3089 19.4318 24.4739 18.8423 24.8457L16.6925 26.2014C16.1126 26.5671 15.8226 26.75 15.5 26.75C15.1774 26.75 14.8874 26.5671 14.3075 26.2014L12.1578 24.8457C11.6122 24.5016 11.3394 24.3296 11.0366 24.3197C10.7094 24.3089 10.4318 24.4739 9.84223 24.8457C9.18194 25.2621 7.86898 26.4092 7.01969 25.8622C6.5 25.5275 6.5 24.6772 6.5 22.9765Z" stroke="black" stroke-width="2" stroke-linecap="round" stroke-linejoin="round"/>
<path d="M14.375 14.375H11" stroke="black" stroke-width="2" stroke-linecap="round" stroke-linejoin="round"/>
<path d="M17.75 9.875H11" stroke="black" stroke-width="2" stroke-linecap="round" stroke-linejoin="round"/>
</svg>
