<svg width="32" height="31" viewBox="0 0 32 31" fill="none" xmlns="http://www.w3.org/2000/svg">
<path d="M27.8836 24C28.9327 24 29.7671 23.3713 30.5162 22.4921C32.0499 20.6925 29.5319 19.2544 28.5714 18.5501C27.5952 17.8341 26.5052 17.4285 25.4 17.3333M24 14.6667C25.933 14.6667 27.5 13.1743 27.5 11.3333C27.5 9.49239 25.933 8 24 8" stroke="black" stroke-width="2" stroke-linecap="round"/>
<path d="M3.96795 24C2.96887 24 2.17423 23.3713 1.46072 22.4921C0.000121951 20.6925 2.39823 19.2544 3.31286 18.5501C4.24263 17.8341 5.28077 17.4285 6.33333 17.3333M7 14.6667C5.15905 14.6667 3.66667 13.1743 3.66667 11.3333C3.66667 9.49239 5.15905 8 7 8" stroke="black" stroke-width="2" stroke-linecap="round"/>
<path d="M10.5776 20.4816C9.1628 21.324 5.45336 23.0441 7.71266 25.1965C8.81631 26.248 10.0455 27 11.5909 27H20.4092C21.9545 27 23.1837 26.248 24.2873 25.1965C26.5466 23.0441 22.8372 21.324 21.4224 20.4816C18.1048 18.5061 13.8951 18.5061 10.5776 20.4816Z" stroke="black" stroke-width="2" stroke-linecap="round" stroke-linejoin="round"/>
<path d="M21 9.5C21 11.9853 18.7614 14 16 14C13.2386 14 11 11.9853 11 9.5C11 7.01471 13.2386 5 16 5C18.7614 5 21 7.01471 21 9.5Z" stroke="black" stroke-width="2"/>
</svg>
