<svg width="31" height="31" viewBox="0 0 31 31" fill="none" xmlns="http://www.w3.org/2000/svg">
<path d="M18.4307 20.0249H11.5867C11.136 20.0249 10.7719 20.4015 10.7719 20.8648C10.7719 21.328 11.136 21.7047 11.5867 21.7047H18.4307C18.8801 21.7047 19.2454 21.328 19.2454 20.8648C19.2454 20.4015 18.8801 20.0249 18.4307 20.0249Z" fill="black"/>
<path d="M24.3263 10.9946L17.4008 5.80709C15.9737 4.73097 14.0362 4.73097 12.609 5.80709L5.68356 10.9946C4.24883 12.0629 3.65047 13.9645 4.20425 15.6981L6.85095 24.0971C7.39202 25.8307 8.95917 27.0039 10.7263 27H19.2839C21.0535 26.9987 22.6179 25.8176 23.1527 24.08L25.7994 15.681C26.3456 13.9553 25.7509 12.0617 24.3263 10.9946ZM24.255 15.1706L21.6121 23.5696H21.6108C21.2837 24.609 20.3441 25.3124 19.2837 25.3098H10.7261C9.66561 25.3124 8.72609 24.609 8.39892 23.5696L5.75602 15.1706C5.42503 14.1326 5.78403 12.9921 6.64209 12.3517L13.5676 7.16416C14.4231 6.51979 15.5867 6.51979 16.4422 7.16416L23.3676 12.3517C24.2257 12.9921 24.5847 14.1326 24.2537 15.1706H24.255Z" fill="black"/>
</svg>
