<svg width="31" height="31" viewBox="0 0 31 31" fill="none" xmlns="http://www.w3.org/2000/svg">
<path d="M21.4001 4.7998V7.19981M8.6001 4.7998V7.19981" stroke="black" stroke-width="1.8" stroke-linecap="round" stroke-linejoin="round"/>
<path d="M4.6001 11.2002L25.4001 11.2002" stroke="black" stroke-width="1.8" stroke-linecap="round" stroke-linejoin="round"/>
<path d="M4.6001 16.1082C4.6001 11.1546 4.6001 8.67785 5.97084 7.13897C7.34158 5.6001 9.54775 5.6001 13.9601 5.6001L16.0401 5.6001C20.4524 5.6001 22.6587 5.6001 24.0294 7.13897C25.4001 8.67785 25.4001 11.1546 25.4001 16.1082V16.692C25.4001 21.6456 25.4001 24.1223 24.0294 25.6613C22.6587 27.2001 20.4524 27.2001 16.0401 27.2001H13.9601C9.54775 27.2001 7.34158 27.2001 5.97084 25.6613C4.6001 24.1223 4.6001 21.6456 4.6001 16.692V16.1082Z" stroke="black" stroke-width="1.8" stroke-linecap="round" stroke-linejoin="round"/>
</svg>
