<svg width="31" height="31" viewBox="0 0 31 31" fill="none" xmlns="http://www.w3.org/2000/svg">
<path d="M11.8613 22.208L12.98 27.804C13.088 28.3453 12.736 28.872 12.196 28.98C12.1293 28.9933 12.0627 29 11.9987 29C11.532 29 11.1147 28.6707 11.02 28.196L9.90133 22.6013C9.87067 22.4467 9.732 22.3333 9.57467 22.3333H5L5 28C5 28.552 4.552 29 4 29C3.448 29 3 28.552 3 28L3 16C3 15.448 3.448 15 4 15C4.552 15 5 15.448 5 16V20.3333H9.57467C10.6827 20.3333 11.6453 21.1213 11.8627 22.208H11.8613ZM28 15C27.448 15 27 15.448 27 16L27 20.3333H22.4253C21.3173 20.3333 20.3547 21.1213 20.1373 22.2093L19.0187 27.804C18.9107 28.3453 19.2627 28.872 19.8027 28.98C19.8693 28.9933 19.936 29 20 29C20.4667 29 20.884 28.6707 20.9787 28.196L22.0973 22.6013C22.128 22.4453 22.2667 22.3333 22.424 22.3333H26.9987V28C26.9987 28.552 27.4467 29 27.9987 29C28.5507 29 28.9987 28.552 28.9987 28L28.9987 16C28.9987 15.448 28.552 15 28 15ZM22.3333 17.3333C22.3333 16.7813 21.8853 16.3333 21.3333 16.3333H10.6667C10.1147 16.3333 9.66667 16.7813 9.66667 17.3333C9.66667 17.8853 10.1147 18.3333 10.6667 18.3333H15L15 28C15 28.552 15.448 29 16 29C16.552 29 17 28.552 17 28L17 18.3333H21.3333C21.8853 18.3333 22.3333 17.8853 22.3333 17.3333ZM8.33333 10.6667V5.33333C8.33333 4.04667 9.38 3 10.6667 3L21.3333 3C22.62 3 23.6667 4.04667 23.6667 5.33333V10.6667C23.6667 11.9533 22.62 13 21.3333 13H10.6667C9.38 13 8.33333 11.9533 8.33333 10.6667ZM10.3333 10.6667C10.3333 10.8507 10.4827 11 10.6667 11L21.3333 11C21.5173 11 21.6667 10.8507 21.6667 10.6667V5.33333C21.6667 5.14933 21.5173 5 21.3333 5L10.6667 5C10.4827 5 10.3333 5.14933 10.3333 5.33333V10.6667Z" fill="black"/>
</svg>
