<svg width="31" height="31" viewBox="0 0 31 31" fill="none" xmlns="http://www.w3.org/2000/svg">
<path d="M24.1786 6.82143C24.1786 8.08173 23.3726 9.15379 22.248 9.55037C22.2493 9.60485 22.25 9.65949 22.25 9.71429C22.25 10.3661 22.1576 10.9962 21.9852 11.5925C24.3165 11.2536 26.1071 9.24665 26.1071 6.82143C26.1071 4.15863 23.9485 2 21.2857 2C19.9608 2 18.7608 2.53438 17.8893 3.39935C18.5404 3.64585 19.1435 3.99017 19.6806 4.41437C20.1398 4.1075 20.6919 3.92857 21.2857 3.92857C22.8834 3.92857 24.1786 5.22375 24.1786 6.82143Z" fill="black"/>
<path d="M27.0714 18.3929C27.0714 18.8194 26.7895 19.4973 25.7184 20.1667C25.5411 20.2775 25.3488 20.383 25.1429 20.4817V21.2618L25.1429 21.2857L25.1429 21.3096V22.5693C27.4487 21.7356 29 20.1775 29 18.3929C29 15.7301 25.5462 13.5714 21.2857 13.5714V15.5C23.1123 15.5 24.6745 15.9666 25.7184 16.619C26.7895 17.2884 27.0714 17.9664 27.0714 18.3929Z" fill="black"/>
<path d="M19.9327 23.0596C21.0038 22.3901 21.2857 21.7122 21.2857 21.2857C21.2857 20.8592 21.0038 20.1813 19.9327 19.5119C18.8888 18.8594 17.3266 18.3929 15.5 18.3929V16.4643C19.7605 16.4643 23.2143 18.6229 23.2143 21.2857C23.2143 23.0703 21.6629 24.6285 19.3571 25.4621V24.2025L19.3572 24.1786L19.3571 24.1546V23.3745C19.5631 23.2758 19.7554 23.1704 19.9327 23.0596Z" fill="black"/>
<path fill-rule="evenodd" clip-rule="evenodd" d="M17.4286 24.1786C17.4286 26.8414 13.9748 29 9.71429 29C5.4538 29 2 26.8414 2 24.1786C2 21.5158 5.4538 19.3571 9.71429 19.3571C13.9748 19.3571 17.4286 21.5158 17.4286 24.1786ZM15.5 24.1786C15.5 24.6051 15.2181 25.283 14.147 25.9524C13.1031 26.6049 11.5409 27.0714 9.71429 27.0714C7.88767 27.0714 6.32551 26.6049 5.2816 25.9524C4.21051 25.283 3.92857 24.6051 3.92857 24.1786C3.92857 23.7521 4.21051 23.0742 5.2816 22.4047C6.32551 21.7523 7.88767 21.2857 9.71429 21.2857C11.5409 21.2857 13.1031 21.7523 14.147 22.4047C15.2181 23.0742 15.5 23.7521 15.5 24.1786Z" fill="black"/>
<path d="M16.4623 12.4432C17.5869 12.0466 18.3928 10.9746 18.3928 9.71429C18.3928 8.1166 17.0977 6.82143 15.5 6.82143C14.9062 6.82143 14.3541 7.00035 13.8948 7.30723C13.3578 6.88303 12.7547 6.53871 12.1036 6.29221C12.975 5.42723 14.1751 4.89286 15.5 4.89286C18.1628 4.89286 20.3214 7.05148 20.3214 9.71429C20.3214 12.1395 18.5308 14.1465 16.1995 14.4853C16.3719 13.8891 16.4643 13.2589 16.4643 12.6071C16.4643 12.5523 16.4636 12.4977 16.4623 12.4432Z" fill="black"/>
<path fill-rule="evenodd" clip-rule="evenodd" d="M14.5357 12.6071C14.5357 15.2699 12.3771 17.4286 9.71429 17.4286C7.05148 17.4286 4.89286 15.2699 4.89286 12.6071C4.89286 9.94434 7.05148 7.78571 9.71429 7.78571C12.3771 7.78571 14.5357 9.94434 14.5357 12.6071ZM12.6071 12.6071C12.6071 14.2048 11.312 15.5 9.71429 15.5C8.1166 15.5 6.82143 14.2048 6.82143 12.6071C6.82143 11.0095 8.1166 9.71429 9.71429 9.71429C11.312 9.71429 12.6071 11.0095 12.6071 12.6071Z" fill="black"/>
</svg>
