<svg width="30" height="30" viewBox="0 0 30 30" fill="none" xmlns="http://www.w3.org/2000/svg">
<path fill-rule="evenodd" clip-rule="evenodd" d="M1.875 3.75C1.875 3.23223 2.29473 2.8125 2.8125 2.8125H5.07747C6.38262 2.8125 7.51628 3.71038 7.81521 4.98083L8.18737 6.5625H24.6488C26.5411 6.5625 27.8934 8.39353 27.337 10.2021L24.7408 18.6396C24.3777 19.8197 23.2874 20.625 22.0527 20.625H11.7975C10.4924 20.625 9.35872 19.7271 9.05979 18.4567L5.99005 5.41028C5.89041 4.98679 5.51252 4.6875 5.07747 4.6875H2.8125C2.29473 4.6875 1.875 4.26777 1.875 3.75ZM8.62854 8.4375L10.8849 18.0272C10.9846 18.4507 11.3625 18.75 11.7975 18.75H22.0527C22.4642 18.75 22.8277 18.4816 22.9487 18.0882L25.5449 9.65071C25.7304 9.04784 25.2796 8.4375 24.6488 8.4375H8.62854Z" fill="black"/>
<path fill-rule="evenodd" clip-rule="evenodd" d="M12.1875 28.125C13.7408 28.125 15 26.8658 15 25.3125C15 23.7592 13.7408 22.5 12.1875 22.5C10.6342 22.5 9.375 23.7592 9.375 25.3125C9.375 26.8658 10.6342 28.125 12.1875 28.125ZM12.1875 26.25C12.7053 26.25 13.125 25.8303 13.125 25.3125C13.125 24.7947 12.7053 24.375 12.1875 24.375C11.6697 24.375 11.25 24.7947 11.25 25.3125C11.25 25.8303 11.6697 26.25 12.1875 26.25Z" fill="black"/>
<path fill-rule="evenodd" clip-rule="evenodd" d="M24.375 25.3125C24.375 26.8658 23.1158 28.125 21.5625 28.125C20.0092 28.125 18.75 26.8658 18.75 25.3125C18.75 23.7592 20.0092 22.5 21.5625 22.5C23.1158 22.5 24.375 23.7592 24.375 25.3125ZM22.5 25.3125C22.5 25.8303 22.0803 26.25 21.5625 26.25C21.0447 26.25 20.625 25.8303 20.625 25.3125C20.625 24.7947 21.0447 24.375 21.5625 24.375C22.0803 24.375 22.5 24.7947 22.5 25.3125Z" fill="black"/>
</svg>
