<svg width="31" height="31" viewBox="0 0 31 31" fill="none" xmlns="http://www.w3.org/2000/svg">
<path fill-rule="evenodd" clip-rule="evenodd" d="M2.875 4.75C2.875 4.23223 3.29473 3.8125 3.8125 3.8125H6.07747C7.38262 3.8125 8.51628 4.71038 8.81521 5.98083L9.18737 7.5625H25.6488C27.5411 7.5625 28.8934 9.39353 28.337 11.2021L25.7408 19.6396C25.3777 20.8197 24.2874 21.625 23.0527 21.625H12.7975C11.4924 21.625 10.3587 20.7271 10.0598 19.4567L6.99005 6.41028C6.89041 5.98679 6.51252 5.6875 6.07747 5.6875H3.8125C3.29473 5.6875 2.875 5.26777 2.875 4.75ZM9.62854 9.4375L11.8849 19.0272C11.9846 19.4507 12.3625 19.75 12.7975 19.75H23.0527C23.4642 19.75 23.8277 19.4816 23.9487 19.0882L26.5449 10.6507C26.7304 10.0478 26.2796 9.4375 25.6488 9.4375H9.62854Z" fill="black"/>
<path fill-rule="evenodd" clip-rule="evenodd" d="M13.1875 29.125C14.7408 29.125 16 27.8658 16 26.3125C16 24.7592 14.7408 23.5 13.1875 23.5C11.6342 23.5 10.375 24.7592 10.375 26.3125C10.375 27.8658 11.6342 29.125 13.1875 29.125ZM13.1875 27.25C13.7053 27.25 14.125 26.8303 14.125 26.3125C14.125 25.7947 13.7053 25.375 13.1875 25.375C12.6697 25.375 12.25 25.7947 12.25 26.3125C12.25 26.8303 12.6697 27.25 13.1875 27.25Z" fill="black"/>
<path fill-rule="evenodd" clip-rule="evenodd" d="M25.375 26.3125C25.375 27.8658 24.1158 29.125 22.5625 29.125C21.0092 29.125 19.75 27.8658 19.75 26.3125C19.75 24.7592 21.0092 23.5 22.5625 23.5C24.1158 23.5 25.375 24.7592 25.375 26.3125ZM23.5 26.3125C23.5 26.8303 23.0803 27.25 22.5625 27.25C22.0447 27.25 21.625 26.8303 21.625 26.3125C21.625 25.7947 22.0447 25.375 22.5625 25.375C23.0803 25.375 23.5 25.7947 23.5 26.3125Z" fill="black"/>
</svg>
