<svg width="31" height="31" viewBox="0 0 31 31" fill="none" xmlns="http://www.w3.org/2000/svg">
<path fill-rule="evenodd" clip-rule="evenodd" d="M15.5 4.78571C11.5551 4.78571 8.35714 7.98368 8.35714 11.9286V17.2857C8.35714 18.765 7.15791 19.9643 5.67857 19.9643C4.19924 19.9643 3 18.765 3 17.2857V13.7143C3 12.235 4.19924 11.0357 5.67857 11.0357C6.00266 11.0357 6.3133 11.0933 6.60083 11.1987C6.97215 6.60898 10.8146 3 15.5 3C20.1854 3 24.0278 6.60898 24.3992 11.1987C24.6867 11.0933 24.9973 11.0357 25.3214 11.0357C26.8008 11.0357 28 12.235 28 13.7143V17.2857C28 18.765 26.8008 19.9643 25.3214 19.9643C25.0084 19.9643 24.7078 19.9106 24.4286 19.8119V21.75C24.4286 23.7224 22.8296 25.3214 20.8571 25.3214H18.9589C18.5624 26.8618 17.1641 28 15.5 28C13.5276 28 11.9286 26.401 11.9286 24.4286C11.9286 22.4561 13.5276 20.8571 15.5 20.8571C17.1641 20.8571 18.5624 21.9953 18.9589 23.5357H20.8571C21.8434 23.5357 22.6429 22.7362 22.6429 21.75V11.9286C22.6429 7.98368 19.4449 4.78571 15.5 4.78571ZM24.4286 17.2857C24.4286 17.7788 24.8283 18.1786 25.3214 18.1786C25.8145 18.1786 26.2143 17.7788 26.2143 17.2857V13.7143C26.2143 13.2212 25.8145 12.8214 25.3214 12.8214C24.8283 12.8214 24.4286 13.2212 24.4286 13.7143V17.2857ZM5.67857 12.8214C6.17168 12.8214 6.57143 13.2212 6.57143 13.7143V17.2857C6.57143 17.7788 6.17168 18.1786 5.67857 18.1786C5.18546 18.1786 4.78571 17.7788 4.78571 17.2857V13.7143C4.78571 13.2212 5.18546 12.8214 5.67857 12.8214ZM15.5 26.2143C16.4862 26.2143 17.2857 25.4148 17.2857 24.4286C17.2857 23.4423 16.4862 22.6429 15.5 22.6429C14.5138 22.6429 13.7143 23.4423 13.7143 24.4286C13.7143 25.4148 14.5138 26.2143 15.5 26.2143Z" fill="black"/>
</svg>
