<svg width="20" height="20" viewBox="0 0 20 20" fill="none" xmlns="http://www.w3.org/2000/svg">
<path d="M4.43475 8.06927C6.44615 4.51015 7.45184 2.73059 8.83191 2.2725C9.59108 2.02049 10.4089 2.02049 11.1681 2.2725C12.5482 2.73059 13.5538 4.51015 15.5652 8.06927C17.5767 11.6284 18.5823 13.4079 18.2807 14.8579C18.1147 15.6557 17.7057 16.3792 17.1125 16.9249C16.0342 17.9169 14.0228 17.9169 9.99999 17.9169C5.9772 17.9169 3.9658 17.9169 2.88746 16.9249C2.29423 16.3792 1.88532 15.6557 1.71934 14.8579C1.41765 13.4079 2.42335 11.6284 4.43475 8.06927Z" stroke="white" stroke-width="1.5"/>
<path d="M9.99335 13.3335H10.0008" stroke="white" stroke-width="2" stroke-linecap="round" stroke-linejoin="round"/>
<path d="M10 10.8334V7.5" stroke="white" stroke-width="1.5" stroke-linecap="round" stroke-linejoin="round"/>
</svg>
