<svg width="8" height="6" viewBox="0 0 8 6" fill="none" xmlns="http://www.w3.org/2000/svg">
<path d="M0.0215993 0.10405C0.00741568 0.131941 1.03455e-05 0.162876 -8.49178e-09 0.194269C5.19734e-05 0.23345 0.011764 0.2717 0.0335998 0.303995L3.84008 5.91629C3.85758 5.94211 3.881 5.96322 3.90832 5.9778C3.93563 5.99238 3.96603 6 3.99688 6C4.02774 6 4.05813 5.99238 4.08545 5.9778C4.11276 5.96322 4.13618 5.94211 4.15369 5.91629L7.96657 0.303996C7.98634 0.274657 7.9978 0.240367 7.99971 0.204864C8.00163 0.169361 7.99391 0.134006 7.97741 0.102651C7.9609 0.0712968 7.93624 0.0451456 7.90612 0.0270474C7.87599 0.00894912 7.84156 -0.000401902 7.80656 1.32364e-05L0.190403 1.29035e-05C0.155594 2.1e-05 0.121454 0.00972363 0.0916924 0.028066C0.0619312 0.0464084 0.0376876 0.0726886 0.0215993 0.10405Z" fill="black"/>
</svg>
