<?xml version="1.0" encoding="utf-8"?>
<!-- Generator: Adobe Illustrator 27.0.0, SVG Export Plug-In . SVG Version: 6.00 Build 0)  -->
<svg version="1.1" id="Layer_1" xmlns="http://www.w3.org/2000/svg" xmlns:xlink="http://www.w3.org/1999/xlink" x="0px" y="0px"
	 viewBox="0 0 26 26" style="enable-background:new 0 0 26 26;" xml:space="preserve">
<style type="text/css">
	.st0{fill:#617F90;}
</style>
<g>
	<path class="st0" d="M5.1,8.6c0,0.2,0,0.5,0.1,0.7c0.1,0.2,0.3,0.3,0.6,0.4c0.2,0.1,0.5,0,0.7-0.1l0,0v8.1c0,0.5,0.2,1,0.6,1.4
		c0.4,0.4,0.9,0.6,1.4,0.6h12c0.5,0,1-0.2,1.4-0.6c0.4-0.4,0.6-0.9,0.6-1.4V9.5c0.1,0.1,0.2,0.1,0.3,0.1c0.1,0,0.2,0,0.4,0
		c0.1,0,0.2-0.1,0.3-0.1c0.1-0.1,0.2-0.2,0.3-0.3c0.1-0.1,0.1-0.2,0.1-0.3c0-0.1,0-0.2,0-0.4c0-0.1-0.1-0.2-0.1-0.3
		c-0.1-0.1-0.2-0.2-0.3-0.2l-7.7-5.1c-0.7-0.5-1.8-0.5-2.6,0L6.5,7.3L5.4,8C5.2,8.2,5.1,8.4,5.1,8.6z M8.3,17.6V8.3l5.9-3.9
		c0.2-0.1,0.4-0.1,0.6,0l5.9,3.9v9.3c0,0,0,0.1,0,0.1c0,0-0.1,0-0.1,0h-12c0,0-0.1,0-0.1,0C8.3,17.7,8.3,17.6,8.3,17.6z"/>
	<path class="st0" d="M25.1,22.5c0-0.1-0.1-0.2-0.2-0.3l-1.4-1.4c-0.3-0.3-0.9-0.3-1.3,0c-0.1,0.1-0.1,0.1-0.2,0.2
		C22,21.2,22,21.3,22,21.5c0,0.2,0.1,0.4,0.2,0.5H4V3.9c0.3,0.2,0.8,0.2,1.2-0.1c0.2-0.2,0.3-0.4,0.3-0.6c0-0.2-0.1-0.5-0.3-0.6
		L3.8,1.1C3.7,1,3.6,0.9,3.5,0.9C3.2,0.8,3,0.8,2.8,0.9C2.7,0.9,2.6,1,2.5,1.1L1.1,2.5C0.9,2.6,0.8,2.9,0.8,3.1
		c0,0.2,0.1,0.5,0.3,0.6c0.3,0.3,0.8,0.4,1.1,0.1V22H1.7c-0.2,0-0.5,0.1-0.6,0.3c-0.2,0.2-0.3,0.4-0.3,0.6c0,0.2,0.1,0.5,0.3,0.6
		c0.2,0.2,0.4,0.3,0.6,0.3h0.5v0.5c0,0.2,0.1,0.5,0.3,0.6c0.3,0.3,0.9,0.3,1.3,0C3.9,24.8,4,24.5,4,24.3v-0.5h18.1
		C22,23.9,22,24.1,22,24.3c0,0.2,0.1,0.5,0.3,0.6c0.2,0.2,0.4,0.3,0.6,0.3c0.2,0,0.5-0.1,0.6-0.3l1.4-1.4c0.1-0.1,0.2-0.2,0.2-0.3
		c0-0.1,0.1-0.2,0.1-0.3C25.2,22.8,25.2,22.6,25.1,22.5z"/>
</g>
</svg>
