<svg width="28" height="14" viewBox="0 0 28 14" fill="none" xmlns="http://www.w3.org/2000/svg">
<path d="M20.2929 12.2929C19.9024 12.6834 19.9024 13.3166 20.2929 13.7071C20.6834 14.0976 21.3166 14.0976 21.7071 13.7071L27.7071 7.70711C28.0976 7.31658 28.0976 6.68342 27.7071 6.29289L21.7071 0.292892C21.3166 -0.097632 20.6834 -0.0976321 20.2929 0.292892C19.9024 0.683417 19.9024 1.31658 20.2929 1.70711L24.5858 6L0.928572 6C0.415738 6 6.60242e-07 6.44771 6.11959e-07 7C5.63677e-07 7.55228 0.415738 8 0.928572 8L24.5858 8L20.2929 12.2929Z" fill="black"/>
</svg>
