<svg width="30" height="30" viewBox="0 0 30 30" fill="none" xmlns="http://www.w3.org/2000/svg">
<g id="Frame">
<path id="Vector" d="M18.75 9.375C18.75 9.375 19.375 9.375 20 10.625C20 10.625 21.9852 7.5 23.75 6.875" stroke="black" stroke-width="1.5" stroke-linecap="round" stroke-linejoin="round"/>
<path id="Vector_2" d="M27.5 8.75C27.5 12.2018 24.7018 15 21.25 15C17.7983 15 15 12.2018 15 8.75C15 5.29823 17.7983 2.5 21.25 2.5C24.7018 2.5 27.5 5.29823 27.5 8.75Z" stroke="black" stroke-width="1.5" stroke-linecap="round"/>
<path id="Vector_3" d="M28.4375 16.5559C28.4366 16.038 28.0161 15.619 27.4984 15.62C26.9806 15.6209 26.5616 16.0414 26.5625 16.5591L28.4375 16.5559ZM11.3323 8.4414C11.85 8.43846 12.2674 8.01636 12.2645 7.49861C12.2615 6.98085 11.8394 6.5635 11.3217 6.56642L11.3323 8.4414ZM16.875 26.5632H13.125V28.4382H16.875V26.5632ZM13.125 26.5632C10.7539 26.5632 9.05441 26.5619 7.74869 26.4144C6.4602 26.2687 5.67949 25.9916 5.09036 25.5264L3.92829 26.9979C4.9075 27.7712 6.08553 28.1134 7.53823 28.2775C8.9737 28.4396 10.7979 28.4382 13.125 28.4382V26.5632ZM1.5625 17.5007C1.5625 19.6869 1.56071 21.4154 1.73453 22.7785C1.91165 24.1674 2.28351 25.2995 3.11623 26.2335L4.51578 24.9857C4.03249 24.4436 3.74635 23.7322 3.59448 22.5412C3.43929 21.3244 3.4375 19.7365 3.4375 17.5007H1.5625ZM5.09036 25.5264C4.88181 25.3617 4.68963 25.1807 4.51578 24.9857L3.11623 26.2335C3.36335 26.5107 3.63514 26.7664 3.92829 26.9979L5.09036 25.5264ZM26.5625 17.5007C26.5625 19.7365 26.5608 21.3244 26.4055 22.5412C26.2536 23.7322 25.9675 24.4436 25.4843 24.9857L26.8838 26.2335C27.7165 25.2995 28.0884 24.1674 28.2655 22.7785C28.4393 21.4154 28.4375 19.6869 28.4375 17.5007H26.5625ZM16.875 28.4382C19.2021 28.4382 21.0263 28.4396 22.4618 28.2775C23.9145 28.1134 25.0925 27.7712 26.0718 26.9979L24.9096 25.5264C24.3205 25.9916 23.5398 26.2687 22.2513 26.4144C20.9456 26.5619 19.2461 26.5632 16.875 26.5632V28.4382ZM25.4843 24.9857C25.3104 25.1807 25.1183 25.3617 24.9096 25.5264L26.0718 26.9979C26.3649 26.7664 26.6366 26.5107 26.8838 26.2335L25.4843 24.9857ZM3.4375 17.5007C3.4375 15.265 3.43929 13.6771 3.59448 12.4602C3.74635 11.2692 4.03249 10.5578 4.51578 10.0157L3.11623 8.768C2.28351 9.70201 1.91165 10.8341 1.73453 12.2231C1.56071 13.5861 1.5625 15.3146 1.5625 17.5007H3.4375ZM3.92829 8.0036C3.63514 8.23511 3.36335 8.49081 3.11623 8.768L4.51578 10.0157C4.68963 9.82075 4.88181 9.63976 5.09036 9.47507L3.92829 8.0036ZM28.4375 17.5007C28.4375 17.1767 28.438 16.8596 28.4375 16.5559L26.5625 16.5591C26.563 16.8609 26.5625 17.1722 26.5625 17.5007H28.4375ZM11.3217 6.56642C9.56223 6.57638 8.13014 6.61691 6.95698 6.80205C5.76626 6.98997 4.77328 7.33627 3.92829 8.0036L5.09036 9.47507C5.59945 9.07302 6.25155 8.81158 7.24928 8.65413C8.26455 8.4939 9.56424 8.4514 11.3323 8.4414L11.3217 6.56642Z" fill="black"/>
<path id="Vector_4" d="M12.5 22.5H14.375" stroke="black" stroke-width="1.5" stroke-miterlimit="10" stroke-linecap="round" stroke-linejoin="round"/>
<path id="Vector_5" d="M18.125 22.5H22.5" stroke="black" stroke-width="1.5" stroke-miterlimit="10" stroke-linecap="round" stroke-linejoin="round"/>
<path id="Vector_6" d="M3.125 13.75H12.5" stroke="black" stroke-width="1.5" stroke-linecap="round" stroke-linejoin="round"/>
</g>
</svg>
