<svg width="22" height="24" viewBox="0 0 22 24" fill="none" xmlns="http://www.w3.org/2000/svg">
<path d="M3.39819 11.4183C3.31654 13.0137 3.4104 14.712 2.02459 15.781C1.3796 16.2786 1 17.0594 1 17.8888C1 19.0295 1.86867 20 3 20H19C20.1313 20 21 19.0295 21 17.8888C21 17.0594 20.6204 16.2786 19.9754 15.781C18.5896 14.712 18.6834 13.0137 18.6018 11.4183C18.389 7.25969 15.0487 4 11 4C6.9513 4 3.61098 7.25968 3.39819 11.4183Z" stroke="#617F90" stroke-width="1.6" stroke-linecap="round" stroke-linejoin="round"/>
<path d="M9 2.125C9 2.95343 9.89547 4 11 4C12.1045 4 13 2.95343 13 2.125C13 1.29657 12.1045 1 11 1C9.89547 1 9 1.29657 9 2.125Z" stroke="#617F90" stroke-width="1.6"/>
<path d="M14 20C14 21.6569 12.6569 23 11 23C9.3431 23 8 21.6569 8 20" stroke="#617F90" stroke-width="1.6" stroke-linecap="round" stroke-linejoin="round"/>
</svg>
