<svg width="16" height="10" viewBox="0 0 16 10" fill="none" xmlns="http://www.w3.org/2000/svg">
<path d="M11.0893 9.75592C10.7638 10.0813 10.2362 10.0813 9.91074 9.75592C9.58533 9.4305 9.58533 8.90283 9.91075 8.57742L12.6548 5.83333H1.33333C0.873084 5.83333 0.5 5.46025 0.5 5C0.5 4.53975 0.873084 4.16667 1.33333 4.16667H12.6548L9.91077 1.42258C9.58533 1.09714 9.58533 0.569507 9.91078 0.244074C10.2362 -0.0813594 10.7639 -0.0813594 11.0893 0.244082L15.2515 4.40633C15.2669 4.4215 15.2817 4.43725 15.2958 4.4535C15.3521 4.51825 15.3968 4.5895 15.4298 4.66467C15.4746 4.76658 15.4997 4.87917 15.5 4.9975V5C15.5 5.00258 15.5 5.00517 15.5 5.00775C15.499 5.1125 15.4787 5.21275 15.4425 5.30492C15.4018 5.4085 15.3396 5.50558 15.2559 5.58925L11.0893 9.75592Z" fill="#617F90"/>
</svg>
