<svg width="12" height="12" viewBox="0 0 12 12" fill="none" xmlns="http://www.w3.org/2000/svg">
<path d="M6 0C5.50907 0 5.11117 0.397907 5.11117 0.888833V5.11117H0.888833C0.397907 5.11117 0 5.50908 0 6C0 6.49093 0.397907 6.88883 0.888833 6.88883H5.11117V11.1112C5.11117 11.6021 5.50907 12 6 12C6.49092 12 6.88883 11.6021 6.88883 11.1112V6.88883H11.1112C11.6021 6.88883 12 6.49093 12 6C12 5.50908 11.6021 5.11117 11.1112 5.11117H6.88883V0.888833C6.88883 0.397907 6.49092 0 6 0Z" fill="black"/>
</svg>
