<svg width="107" height="38" viewBox="0 0 107 38" fill="none" xmlns="http://www.w3.org/2000/svg">
<path d="M12.4406 1.23584H0V36.9194H12.4406C17.5096 36.9194 21.825 35.1988 25.2538 31.81C28.6826 28.4213 30.4264 24.1863 30.4264 19.23V19.0783C30.4264 14.0526 28.67 9.77236 25.2062 6.37076C21.7424 2.96922 17.4423 1.23726 12.4406 1.23726V1.23584ZM21.4692 28.0826C19.1581 30.4721 16.1229 31.6839 12.4406 31.6839H5.5774V6.46997H12.4406C16.0823 6.46997 19.1148 7.66476 21.4413 10.0132C23.7676 12.3617 24.9428 15.4146 24.9428 19.0727C24.9428 22.6571 23.7732 25.6845 21.4637 28.0755" fill="black"/>
<path d="M41.5299 1.28613H35.8979V36.8649H41.5299V1.28613Z" fill="black"/>
<path d="M48.2661 36.8677H53.7987V21.8088V21.5636H54.0367H70.0364V16.535H54.0367H53.7987V16.2941V6.71305V6.46927H54.0367H72.0687V1.2876H48.2661V36.8677Z" fill="black"/>
<path d="M101.888 26.8541C101.061 28.0909 100.001 29.1505 98.7684 29.9721C96.9574 31.174 94.813 31.7877 92.3996 31.7877C88.8882 31.7877 85.9286 30.5405 83.5979 28.0771C83.2258 27.6815 82.8787 27.2626 82.5587 26.8229C80.9269 24.6048 80.0935 21.9813 80.0935 19.0277C80.0935 16.074 80.8946 13.4661 82.4677 11.2636C82.813 10.7731 83.1907 10.3067 83.5979 9.86756C85.9286 7.40992 88.8882 6.16274 92.3996 6.16274C94.7807 6.16274 96.9252 6.80903 98.7726 8.0832C100.01 8.93937 101.082 10.0172 101.935 11.2636L106.202 7.90605C105.031 6.32662 103.617 4.94714 102.015 3.81993C99.2012 1.83569 95.963 0.82373 92.3996 0.82373C87.4651 0.82373 83.2058 2.62088 79.742 6.16131C79.2014 6.71398 78.693 7.29795 78.2194 7.91031C75.7627 11.0865 74.5146 14.8282 74.5146 19.0262C74.5146 23.2569 75.7823 27.0142 78.2797 30.1989C78.7362 30.7805 79.2244 31.336 79.742 31.8628C83.2086 35.389 87.4651 37.1763 92.3996 37.1763C95.9671 37.1763 99.2012 36.1842 102.018 34.2C103.595 33.0979 104.988 31.7482 106.144 30.2017L101.888 26.8541Z" fill="black"/>
</svg>
