<svg width="46" height="46" viewBox="0 0 46 46" fill="none" xmlns="http://www.w3.org/2000/svg">
<path d="M46.0002 21.2512L24.7505 0V5.96688L40.035 21.2512H46.0002Z" fill="black"/>
<path d="M0 21.2512L21.2486 0V5.96688L5.96288 21.2512H0Z" fill="black"/>
<path d="M0 24.749L21.2486 46.0001V40.0332L5.96288 24.749H0Z" fill="black"/>
<path d="M46.0002 24.749L24.7505 46.0001V40.0332L40.035 24.749H46.0002Z" fill="black"/>
<path d="M25.1171 11.259L22.9992 9.1416L20.8857 11.2562V34.3272L22.9992 36.4404L25.1171 34.323V11.259Z" fill="black"/>
<path d="M17.7482 31.216V14.3896L13.5361 18.592V26.9769L17.7482 31.216Z" fill="black"/>
<path d="M28.2559 31.216V14.3896L32.4679 18.592V26.9769L28.2559 31.216Z" fill="black"/>
</svg>
