<svg width="188" height="55" viewBox="0 0 188 55" fill="none" xmlns="http://www.w3.org/2000/svg">
<path d="M14.8027 6.25995H0V48.9249H14.8027C20.8342 48.9249 25.9689 46.8677 30.0487 42.8159C34.1285 38.7641 36.2035 33.7007 36.2035 27.7746V27.5932C36.2035 21.5843 34.1136 16.4666 29.9921 12.3995C25.8706 8.33246 20.7541 6.26165 14.8027 6.26165V6.25995ZM25.5456 38.3592C22.7957 41.2162 19.1842 42.6651 14.8027 42.6651H6.63639V12.5181H14.8027C19.1358 12.5181 22.7441 13.9467 25.5123 16.7546C28.2804 19.5626 29.6787 23.2127 29.6787 27.5865C29.6787 31.8722 28.2871 35.4919 25.539 38.3507" fill="black"/>
<path d="M49.4147 6.32077H42.7134V48.8604H49.4147V6.32077Z" fill="black"/>
<path d="M57.4307 48.8639H64.0137V30.8588V30.5655H64.297H83.3344V24.5531H64.297H64.0137V24.2651V12.8095V12.518H64.297H85.7527V6.32259H57.4307V48.8639Z" fill="black"/>
<path d="M121.233 36.8898C120.25 38.3687 118.988 39.6355 117.522 40.6179C115.367 42.0549 112.815 42.7886 109.944 42.7886C105.766 42.7886 102.244 41.2975 99.471 38.3522C99.0283 37.8792 98.6152 37.3783 98.2345 36.8525C96.2928 34.2005 95.3011 31.0637 95.3011 27.5322C95.3011 24.0006 96.2544 20.8825 98.1261 18.2491C98.537 17.6626 98.9864 17.105 99.471 16.5799C102.244 13.6415 105.766 12.1503 109.944 12.1503C112.777 12.1503 115.329 12.923 117.527 14.4465C118.999 15.4701 120.274 16.7589 121.29 18.2491L126.367 14.2347C124.973 12.3462 123.291 10.6969 121.385 9.3491C118.037 6.97665 114.184 5.76671 109.944 5.76671C104.072 5.76671 99.0044 7.91546 94.8829 12.1486C94.2397 12.8094 93.6348 13.5076 93.0713 14.2398C90.1481 18.0373 88.6631 22.5111 88.6631 27.5304C88.6631 32.5888 90.1714 37.0813 93.143 40.889C93.6862 41.5844 94.2671 42.2486 94.8829 42.8785C99.0078 47.0946 104.072 49.2316 109.944 49.2316C114.189 49.2316 118.037 48.0453 121.388 45.6729C123.265 44.3552 124.922 42.7414 126.298 40.8924L121.233 36.8898Z" fill="black"/>
<path d="M188 25.4089L163.016 0V7.13428L180.986 25.4089H188Z" fill="black"/>
<path d="M133.915 25.4089L158.898 0V7.13428L140.925 25.4089H133.915Z" fill="black"/>
<path d="M133.915 29.5912L158.898 55V47.8657L140.925 29.5912H133.915Z" fill="black"/>
<path d="M188 29.5912L163.016 55V47.8657L180.986 29.5912H188Z" fill="black"/>
<path d="M163.446 13.4619L160.956 10.9302L158.471 13.4585V41.0433L160.956 43.5699L163.446 41.0382V13.4619Z" fill="black"/>
<path d="M154.783 37.3235V17.2052L149.831 22.2298V32.2551L154.783 37.3235Z" fill="black"/>
<path d="M167.136 37.3235V17.2052L172.088 22.2298V32.2551L167.136 37.3235Z" fill="black"/>
</svg>
