<svg width="28" height="24" viewBox="0 0 28 24" fill="none" xmlns="http://www.w3.org/2000/svg">
<path fill-rule="evenodd" clip-rule="evenodd" d="M7.4375 4.5C7.4375 2.42893 9.11643 0.75 11.1875 0.75H16.8125C18.8836 0.75 20.5625 2.42893 20.5625 4.5H23.375C25.4461 4.5 27.125 6.17893 27.125 8.25V19.5C27.125 21.5711 25.4461 23.25 23.375 23.25H4.625C2.55393 23.25 0.875 21.5711 0.875 19.5V8.25C0.875 6.17893 2.55393 4.5 4.625 4.5H7.4375ZM11.1875 2.625H16.8125C17.848 2.625 18.6875 3.46447 18.6875 4.5H9.3125C9.3125 3.46447 10.152 2.625 11.1875 2.625ZM4.625 6.375C3.58947 6.375 2.75 7.21447 2.75 8.25V19.5C2.75 20.5355 3.58947 21.375 4.625 21.375H23.375C24.4105 21.375 25.25 20.5355 25.25 19.5V8.25C25.25 7.21447 24.4105 6.375 23.375 6.375H4.625Z" fill="black"/>
</svg>
