<svg width="21" height="20" viewBox="0 0 21 20" fill="none" xmlns="http://www.w3.org/2000/svg">
<path d="M13.5893 14.7559C13.2638 15.0813 12.7362 15.0813 12.4107 14.7559C12.0853 14.4305 12.0853 13.9028 12.4108 13.5774L15.1548 10.8333H3.83333C3.37308 10.8333 3 10.4602 3 10C3 9.53975 3.37308 9.16667 3.83333 9.16667H15.1548L12.4108 6.42258C12.0853 6.09714 12.0853 5.56951 12.4108 5.24407C12.7362 4.91864 13.2639 4.91864 13.5893 5.24408L17.7515 9.40633C17.7669 9.4215 17.7817 9.43725 17.7958 9.4535C17.8521 9.51825 17.8968 9.5895 17.9298 9.66467C17.9746 9.76658 17.9997 9.87917 18 9.9975V10C18 10.0026 18 10.0052 18 10.0077C17.999 10.1125 17.9787 10.2127 17.9425 10.3049C17.9018 10.4085 17.8396 10.5056 17.7559 10.5892L13.5893 14.7559Z" fill="#617F90"/>
</svg>
