<svg width="24" height="24" viewBox="0 0 24 24" fill="none" xmlns="http://www.w3.org/2000/svg">
<path fill-rule="evenodd" clip-rule="evenodd" d="M6.375 0.75C6.89277 0.75 7.3125 1.16973 7.3125 1.6875V2.625H16.6875V1.6875C16.6875 1.16973 17.1072 0.75 17.625 0.75C18.1428 0.75 18.5625 1.16973 18.5625 1.6875V2.625H19.5C21.5711 2.625 23.25 4.30393 23.25 6.375V19.5C23.25 21.5711 21.5711 23.25 19.5 23.25H4.5C2.42893 23.25 0.75 21.5711 0.75 19.5V6.375C0.75 4.30393 2.42893 2.625 4.5 2.625H5.4375V1.6875C5.4375 1.16973 5.85723 0.75 6.375 0.75ZM16.6875 4.5V5.4375C16.6875 5.95527 17.1072 6.375 17.625 6.375C18.1428 6.375 18.5625 5.95527 18.5625 5.4375V4.5H19.5C20.5355 4.5 21.375 5.33947 21.375 6.375V8.25H2.625V6.375C2.625 5.33947 3.46447 4.5 4.5 4.5H5.4375V5.4375C5.4375 5.95527 5.85723 6.375 6.375 6.375C6.89277 6.375 7.3125 5.95527 7.3125 5.4375V4.5H16.6875ZM2.625 10.125V19.5C2.625 20.5355 3.46447 21.375 4.5 21.375H19.5C20.5355 21.375 21.375 20.5355 21.375 19.5V10.125H2.625Z" fill="black"/>
</svg>
