<svg width="20" height="20" viewBox="0 0 20 20" fill="none" xmlns="http://www.w3.org/2000/svg">
<path d="M15.9556 1.95882H15.3941V1.52941C15.3941 1.18181 15.1123 0.9 14.7647 0.9C14.4171 0.9 14.1353 1.18181 14.1353 1.52941V1.95882H5.86471V1.52941C5.86471 1.18181 5.5829 0.9 5.23529 0.9C4.88769 0.9 4.60588 1.18181 4.60588 1.52941V1.95882H4.04444C2.31048 1.95882 0.9 3.3693 0.9 5.10326V15.9556C0.9 17.6895 2.31048 19.1 4.04444 19.1H15.9556C17.6895 19.1 19.1 17.6895 19.1 15.9556V5.10326C19.1 3.3693 17.6895 1.95882 15.9556 1.95882ZM4.04444 3.21765H4.60588V4.17647C4.60588 4.52408 4.88769 4.80588 5.23529 4.80588C5.5829 4.80588 5.86471 4.52408 5.86471 4.17647V3.21765H14.1353V4.17647C14.1353 4.52408 14.4171 4.80588 14.7647 4.80588C15.1123 4.80588 15.3941 4.52408 15.3941 4.17647V3.21765H15.9556C16.9952 3.21765 17.8412 4.06359 17.8412 5.10326V6.19412H2.15882V5.10326C2.15882 4.06359 3.00477 3.21765 4.04444 3.21765ZM15.9556 17.8412H4.04444C3.00477 17.8412 2.15882 16.9952 2.15882 15.9556V7.45294H17.8412V15.9556C17.8412 16.9952 16.9952 17.8412 15.9556 17.8412Z" fill="#617F90" stroke="#617F90" stroke-width="0.2"/>
</svg>
