<svg width="21" height="21" viewBox="0 0 21 21" fill="none" xmlns="http://www.w3.org/2000/svg">
<path fill-rule="evenodd" clip-rule="evenodd" d="M0.5 1C0.5 0.585786 0.835786 0.25 1.25 0.25H3.06198C4.10609 0.25 5.01302 0.968301 5.25217 1.98466L5.54989 3.25H18.7191C20.2329 3.25 21.3148 4.71482 20.8696 6.16169L18.7926 12.9117C18.5022 13.8558 17.6299 14.5 16.6421 14.5H8.43802C7.39391 14.5 6.48698 13.7817 6.24783 12.7653L3.79204 2.32822C3.71233 1.98943 3.41002 1.75 3.06198 1.75H1.25C0.835786 1.75 0.5 1.41421 0.5 1ZM5.90283 4.75L7.70796 12.4218C7.78767 12.7606 8.08998 13 8.43802 13H16.6421C16.9714 13 17.2621 12.7853 17.359 12.4706L19.4359 5.72056C19.5843 5.23827 19.2237 4.75 18.7191 4.75H5.90283Z" fill="#617F90"/>
<path fill-rule="evenodd" clip-rule="evenodd" d="M8.75 20.5C9.99264 20.5 11 19.4926 11 18.25C11 17.0074 9.99264 16 8.75 16C7.50736 16 6.5 17.0074 6.5 18.25C6.5 19.4926 7.50736 20.5 8.75 20.5ZM8.75 19C9.16421 19 9.5 18.6642 9.5 18.25C9.5 17.8358 9.16421 17.5 8.75 17.5C8.33579 17.5 8 17.8358 8 18.25C8 18.6642 8.33579 19 8.75 19Z" fill="#617F90"/>
<path fill-rule="evenodd" clip-rule="evenodd" d="M18.5 18.25C18.5 19.4926 17.4926 20.5 16.25 20.5C15.0074 20.5 14 19.4926 14 18.25C14 17.0074 15.0074 16 16.25 16C17.4926 16 18.5 17.0074 18.5 18.25ZM17 18.25C17 18.6642 16.6642 19 16.25 19C15.8358 19 15.5 18.6642 15.5 18.25C15.5 17.8358 15.8358 17.5 16.25 17.5C16.6642 17.5 17 17.8358 17 18.25Z" fill="#617F90"/>
</svg>
