<svg width="30" height="30" viewBox="0 0 30 30" fill="none" xmlns="http://www.w3.org/2000/svg">
<g id="Frame">
<path id="Vector" d="M15 5C8.75 7.8125 2.5 5 2.5 5V21.25C2.5 21.25 8.75 24.0625 15 21.25C15 21.25 21.25 18.4375 27.5 21.25V5C21.25 2.1875 15 5 15 5Z" stroke="black" stroke-width="1.5" stroke-linecap="round" stroke-linejoin="round"/>
<path id="Vector_2" d="M2.5 25C2.5 25 8.75 27.8125 15 25C15 25 21.25 22.1875 27.5 25" stroke="black" stroke-width="1.5" stroke-linecap="round" stroke-linejoin="round"/>
<path id="Vector_3" d="M18.125 13.125C18.125 14.8509 16.7259 16.25 15 16.25C13.2741 16.25 11.875 14.8509 11.875 13.125C11.875 11.3991 13.2741 10 15 10C16.7259 10 18.125 11.3991 18.125 13.125Z" stroke="black" stroke-width="1.5" stroke-linejoin="round"/>
<path id="Vector_4" d="M6.875 14.375V14.3862" stroke="black" stroke-width="1.5" stroke-linecap="round" stroke-linejoin="round"/>
<path id="Vector_5" d="M23.125 11.8643V11.8755" stroke="black" stroke-width="1.5" stroke-linecap="round" stroke-linejoin="round"/>
</g>
</svg>
