<svg width="20" height="21" viewBox="0 0 20 21" fill="none" xmlns="http://www.w3.org/2000/svg">
<g clip-path="url(#clip0_309_12012)">
<path d="M10 0.5C12.6522 0.5 15.1957 1.55357 17.0711 3.42893C18.9464 5.3043 20 7.84784 20 10.5C20 13.1522 18.9464 15.6957 17.0711 17.5711C15.1957 19.4464 12.6522 20.5 10 20.5C7.34784 20.5 4.8043 19.4464 2.92893 17.5711C1.05357 15.6957 0 13.1522 0 10.5C0 7.84784 1.05357 5.3043 2.92893 3.42893C4.8043 1.55357 7.34784 0.5 10 0.5ZM14.1975 7.5575C14.094 7.45447 13.9577 7.39094 13.8123 7.37792C13.6668 7.36491 13.5214 7.40323 13.4012 7.48625L13.3138 7.5575L8.75 12.1225L6.6925 10.0638L6.605 9.99125C6.48461 9.90831 6.33895 9.8702 6.19336 9.88355C6.04777 9.8969 5.91147 9.96086 5.80817 10.0643C5.70486 10.1678 5.6411 10.3042 5.62796 10.4498C5.61482 10.5954 5.65314 10.741 5.73625 10.8612L5.8075 10.9488L8.3075 13.4488L8.395 13.52C8.49937 13.592 8.62319 13.6306 8.75 13.6306C8.87681 13.6306 9.00063 13.592 9.105 13.52L9.1925 13.4475L14.1975 8.4425L14.27 8.355C14.3532 8.23461 14.3915 8.08885 14.3782 7.94311C14.365 7.79738 14.301 7.66091 14.1975 7.5575Z" fill="#31E965"/>
</g>
<defs>
<clipPath id="clip0_309_12012">
<rect width="20" height="20" fill="white" transform="translate(0 0.5)"/>
</clipPath>
</defs>
</svg>
