<svg width="22" height="22" viewBox="0 0 22 22" fill="none" xmlns="http://www.w3.org/2000/svg">
<path fill-rule="evenodd" clip-rule="evenodd" d="M11 19.25C15.5563 19.25 19.25 15.5563 19.25 11C19.25 6.44365 15.5563 2.75 11 2.75C6.44365 2.75 2.75 6.44365 2.75 11C2.75 15.5563 6.44365 19.25 11 19.25ZM11 20.625C16.3157 20.625 20.625 16.3157 20.625 11C20.625 5.68426 16.3157 1.375 11 1.375C5.68426 1.375 1.375 5.68426 1.375 11C1.375 16.3157 5.68426 20.625 11 20.625Z" fill="#617F90"/>
<path fill-rule="evenodd" clip-rule="evenodd" d="M11 5.5C11.3797 5.5 11.6875 5.8078 11.6875 6.1875V10.6812L14.9262 13.9539C15.1933 14.2238 15.191 14.6591 14.9211 14.9262C14.6512 15.1932 14.2159 15.191 13.9488 14.9211L10.5113 11.4474C10.3839 11.3187 10.3125 11.1449 10.3125 10.9638V6.1875C10.3125 5.8078 10.6203 5.5 11 5.5Z" fill="#617F90"/>
</svg>
