<svg width="30" height="30" viewBox="0 0 30 30" fill="none" xmlns="http://www.w3.org/2000/svg">
<path d="M8.93907 10.4543C8.52065 10.0359 8.52065 9.3575 8.93907 8.93908C9.35749 8.52067 10.0359 8.52067 10.4543 8.93908L15 13.4848L19.5457 8.93908C19.9641 8.52067 20.6425 8.52067 21.0609 8.93908C21.4793 9.3575 21.4793 10.0359 21.0609 10.4543L16.5152 15L21.0609 19.5457C21.4793 19.9641 21.4793 20.6425 21.0609 21.0609C20.6425 21.4793 19.9641 21.4793 19.5457 21.0609L15 16.5152L10.4543 21.0609C10.0359 21.4793 9.35749 21.4793 8.93907 21.0609C8.52065 20.6425 8.52065 19.9641 8.93907 19.5457L13.4848 15L8.93907 10.4543Z" fill="#EF3249"/>
<path fill-rule="evenodd" clip-rule="evenodd" d="M30 15C30 23.2843 23.2843 30 15 30C6.71573 30 0 23.2843 0 15C0 6.71573 6.71573 0 15 0C23.2843 0 30 6.71573 30 15ZM27.8571 15C27.8571 22.1008 22.1008 27.8571 15 27.8571C7.8992 27.8571 2.14286 22.1008 2.14286 15C2.14286 7.8992 7.8992 2.14286 15 2.14286C22.1008 2.14286 27.8571 7.8992 27.8571 15Z" fill="#EF3249"/>
</svg>
