<svg width="24" height="24" viewBox="0 0 24 24" fill="none" xmlns="http://www.w3.org/2000/svg">
<path d="M7.15126 8.36345C6.81652 8.02872 6.81652 7.486 7.15126 7.15127C7.48599 6.81653 8.02871 6.81653 8.36344 7.15127L12 10.7878L15.6365 7.15127C15.9713 6.81653 16.514 6.81653 16.8487 7.15127C17.1835 7.486 17.1835 8.02872 16.8487 8.36345L13.2122 12L16.8487 15.6365C17.1835 15.9713 17.1835 16.514 16.8487 16.8487C16.514 17.1835 15.9713 17.1835 15.6365 16.8487L12 13.2122L8.36344 16.8487C8.02871 17.1835 7.48599 17.1835 7.15126 16.8487C6.81652 16.514 6.81652 15.9713 7.15126 15.6365L10.7878 12L7.15126 8.36345Z" fill="white"/>
<path fill-rule="evenodd" clip-rule="evenodd" d="M24 12C24 18.6274 18.6274 24 12 24C5.37258 24 0 18.6274 0 12C0 5.37258 5.37258 0 12 0C18.6274 0 24 5.37258 24 12ZM22.2857 12C22.2857 17.6806 17.6806 22.2857 12 22.2857C6.31936 22.2857 1.71429 17.6806 1.71429 12C1.71429 6.31936 6.31936 1.71429 12 1.71429C17.6806 1.71429 22.2857 6.31936 22.2857 12Z" fill="white"/>
</svg>
