<svg width="28" height="28" viewBox="0 0 28 28" fill="none" xmlns="http://www.w3.org/2000/svg">
<path d="M16.625 12.25C16.1418 12.25 15.75 12.6418 15.75 13.125C15.75 13.6082 16.1418 14 16.625 14C17.1082 14 17.5 13.6082 17.5 13.125C17.5 12.6418 17.1082 12.25 16.625 12.25Z" fill="black"/>
<path d="M7 9.625C7 9.14175 7.39175 8.75 7.875 8.75H20.125C20.6082 8.75 21 9.14175 21 9.625C21 10.1082 20.6082 10.5 20.125 10.5H7.875C7.39175 10.5 7 10.1082 7 9.625Z" fill="black"/>
<path d="M7.875 12.25C7.39175 12.25 7 12.6418 7 13.125C7 13.6082 7.39175 14 7.875 14H13.125C13.6082 14 14 13.6082 14 13.125C14 12.6418 13.6082 12.25 13.125 12.25H7.875Z" fill="black"/>
<path fill-rule="evenodd" clip-rule="evenodd" d="M7.875 2.625C4.49226 2.625 1.75 5.36726 1.75 8.75V17.0625C1.75 18.7539 3.12113 20.125 4.8125 20.125C5.53737 20.125 6.125 20.7126 6.125 21.4375V22.4216C6.125 24.6139 8.77562 25.7118 10.3258 24.1616L13.081 21.4064C13.9015 20.5859 15.0143 20.125 16.1746 20.125H20.125C23.5077 20.125 26.25 17.3827 26.25 14V8.75C26.25 5.36726 23.5077 2.625 20.125 2.625H7.875ZM3.5 8.75C3.5 6.33375 5.45875 4.375 7.875 4.375H20.125C22.5412 4.375 24.5 6.33375 24.5 8.75V14C24.5 16.4162 22.5412 18.375 20.125 18.375H16.1746C14.5502 18.375 12.9923 19.0203 11.8436 20.169L9.08839 22.9242C8.64062 23.3719 7.875 23.0548 7.875 22.4216V21.4375C7.875 19.7461 6.50387 18.375 4.8125 18.375C4.08763 18.375 3.5 17.7874 3.5 17.0625V8.75Z" fill="black"/>
</svg>
