<svg width="31" height="30" viewBox="0 0 31 30" fill="none" xmlns="http://www.w3.org/2000/svg">
<path d="M26.705 5H21.7148M26.705 5C26.705 5.70023 24.8408 7.00847 24.2098 7.5M26.705 5C26.705 4.29977 24.8408 2.99153 24.2098 2.5" stroke="black" stroke-width="2" stroke-linecap="round" stroke-linejoin="round"/>
<path d="M4.24805 5H9.23823M4.24805 5C4.24805 4.29977 6.11226 2.99153 6.74315 2.5M4.24805 5C4.24805 5.70023 6.11226 7.00847 6.74315 7.5" stroke="black" stroke-width="2" stroke-linecap="round" stroke-linejoin="round"/>
<path d="M12.7676 27.5004V26.324C12.7676 25.5142 12.5054 24.7259 12.0201 24.0774L7.24173 17.6914C6.84464 17.1607 6.54852 16.5173 6.73086 15.88C7.18111 14.3064 8.95869 12.9073 10.9476 15.3714L12.9478 17.5058V4.49193C13.0704 2.2054 16.9144 1.48323 17.3118 4.49193V11.9084C19.165 11.6698 27.894 12.9722 26.6242 18.4893C26.5634 18.7529 26.5028 19.0205 26.4434 19.2845C26.1854 20.4322 25.4247 22.4747 24.5858 23.669C23.7119 24.9133 24.12 26.9188 24.0203 27.502" stroke="black" stroke-width="2" stroke-linecap="round" stroke-linejoin="round"/>
</svg>
