<svg width="10" height="7" viewBox="0 0 10 7" fill="none" xmlns="http://www.w3.org/2000/svg">
<path d="M0.0269995 0.121391C0.00926996 0.153931 1.29324e-05 0.190021 -9.90708e-09 0.226647C6.49676e-05 0.272358 0.014705 0.316983 0.0419998 0.354661L4.8001 6.90234C4.82198 6.93246 4.85125 6.95709 4.8854 6.9741C4.91954 6.99111 4.95753 7 4.9961 7C5.03467 7 5.07267 6.99111 5.10681 6.9741C5.14096 6.95709 5.17023 6.93246 5.19211 6.90234L9.95821 0.354662C9.98292 0.320433 9.99725 0.280429 9.99964 0.239008C10.002 0.197588 9.99239 0.15634 9.97176 0.11976C9.95113 0.0831796 9.92031 0.0526699 9.88265 0.0315553C9.84499 0.0104406 9.80195 -0.000468886 9.7582 1.54418e-05L0.238004 1.50256e-05C0.194492 2.44715e-05 0.151817 0.0113442 0.114615 0.0327437C0.0774139 0.0541431 0.0471099 0.0848034 0.0269995 0.121391Z" fill="black"/>
</svg>
