<?xml version="1.0" encoding="utf-8"?>
<!-- Generator: Adobe Illustrator 27.0.0, SVG Export Plug-In . SVG Version: 6.00 Build 0)  -->
<svg version="1.1" id="Layer_1" xmlns="http://www.w3.org/2000/svg" xmlns:xlink="http://www.w3.org/1999/xlink" x="0px" y="0px"
	 viewBox="0 0 24 24" style="enable-background:new 0 0 24 24;" xml:space="preserve">
<style type="text/css">
	.st0{clip-path:url(#SVGID_00000019671295887321543210000017366442854438672024_);}
	.st1{fill:none;stroke:#617F90;stroke-width:1.5;stroke-linecap:round;stroke-linejoin:round;}
	.st2{fill:none;stroke:#617F90;stroke-width:1.5;stroke-linecap:round;}
</style>
<g>
	<defs>
		<rect id="SVGID_1_" x="2" y="2" width="20" height="20"/>
	</defs>
	<clipPath id="SVGID_00000008134234288791257090000008337073487289673354_">
		<use xlink:href="#SVGID_1_"  style="overflow:visible;"/>
	</clipPath>
	<g id="Frame" style="clip-path:url(#SVGID_00000008134234288791257090000008337073487289673354_);">
		<path id="Vector" class="st1" d="M16.2,5l1.4-1.4c0.8-0.8,2-0.8,2.8,0c0.8,0.8,0.8,2,0,2.8L19,7.8 M16.2,5L11,10.2
			c-1,1-1.6,1.6-1.9,2.2C8.7,13.1,8.3,14.6,8,16c1.4-0.3,2.9-0.7,3.6-1.1c0.6-0.4,1.2-0.9,2.2-1.9L19,7.8 M16.2,5L19,7.8"/>
		<path id="Vector_2" class="st2" d="M21,12c0,4.2,0,6.4-1.3,7.7C18.4,21,16.2,21,12,21c-4.2,0-6.4,0-7.7-1.3C3,18.4,3,16.2,3,12
			c0-4.2,0-6.4,1.3-7.7S7.8,3,12,3"/>
	</g>
</g>
</svg>
