<svg width="18" height="18" viewBox="0 0 18 18" fill="none" xmlns="http://www.w3.org/2000/svg">
<path d="M8.99984 13.1667C9.23595 13.1667 9.434 13.0867 9.594 12.9267C9.754 12.7667 9.83373 12.5689 9.83317 12.3333C9.83262 12.0978 9.75262 11.9 9.59317 11.74C9.43373 11.58 9.23595 11.5 8.99984 11.5C8.76373 11.5 8.56595 11.58 8.4065 11.74C8.24706 11.9 8.16706 12.0978 8.1665 12.3333C8.16595 12.5689 8.24595 12.7669 8.4065 12.9275C8.56706 13.0881 8.76484 13.1678 8.99984 13.1667ZM8.99984 9.83334C9.23595 9.83334 9.434 9.75334 9.594 9.59334C9.754 9.43334 9.83373 9.23556 9.83317 9.00001V5.66667C9.83317 5.43056 9.75317 5.23278 9.59317 5.07334C9.43317 4.91389 9.23539 4.83389 8.99984 4.83334C8.76428 4.83278 8.5665 4.91278 8.4065 5.07334C8.2465 5.23389 8.1665 5.43167 8.1665 5.66667V9.00001C8.1665 9.23612 8.2465 9.43417 8.4065 9.59417C8.5665 9.75417 8.76428 9.83389 8.99984 9.83334ZM8.99984 17.3333C7.84706 17.3333 6.76373 17.1145 5.74984 16.6767C4.73595 16.2389 3.854 15.6453 3.10401 14.8958C2.354 14.1464 1.76039 13.2645 1.32317 12.25C0.885949 11.2356 0.667061 10.1522 0.666505 9.00001C0.665949 7.84778 0.884838 6.76445 1.32317 5.75001C1.76151 4.73556 2.35512 3.85362 3.10401 3.10417C3.85289 2.35473 4.73484 1.76112 5.74984 1.32334C6.76484 0.885561 7.84817 0.666672 8.99984 0.666672C10.1515 0.666672 11.2348 0.885561 12.2498 1.32334C13.2648 1.76112 14.1468 2.35473 14.8957 3.10417C15.6446 3.85362 16.2384 4.73556 16.6773 5.75001C17.1162 6.76445 17.3348 7.84778 17.3332 9.00001C17.3315 10.1522 17.1126 11.2356 16.6765 12.25C16.2404 13.2645 15.6468 14.1464 14.8957 14.8958C14.1446 15.6453 13.2626 16.2392 12.2498 16.6775C11.2371 17.1158 10.1537 17.3344 8.99984 17.3333ZM8.99984 15.6667C10.8609 15.6667 12.4373 15.0208 13.729 13.7292C15.0207 12.4375 15.6665 10.8611 15.6665 9.00001C15.6665 7.13889 15.0207 5.56251 13.729 4.27084C12.4373 2.97917 10.8609 2.33334 8.99984 2.33334C7.13873 2.33334 5.56234 2.97917 4.27067 4.27084C2.979 5.56251 2.33317 7.13889 2.33317 9.00001C2.33317 10.8611 2.979 12.4375 4.27067 13.7292C5.56234 15.0208 7.13873 15.6667 8.99984 15.6667Z" fill="#EF3249"/>
</svg>
