<svg width="20" height="20" viewBox="0 0 20 20" fill="none" xmlns="http://www.w3.org/2000/svg">
<path d="M9.375 5.625C9.375 5.27982 9.65482 5 10 5C10.3452 5 10.625 5.27982 10.625 5.625V10.625C10.625 10.9702 10.3452 11.25 10 11.25C9.65482 11.25 9.375 10.9702 9.375 10.625V5.625Z" fill="#617F90"/>
<path d="M10 14.375C10.3452 14.375 10.625 14.0952 10.625 13.75C10.625 13.4048 10.3452 13.125 10 13.125C9.65482 13.125 9.375 13.4048 9.375 13.75C9.375 14.0952 9.65482 14.375 10 14.375Z" fill="#617F90"/>
<path fill-rule="evenodd" clip-rule="evenodd" d="M18.75 10C18.75 14.8325 14.8325 18.75 10 18.75C5.16751 18.75 1.25 14.8325 1.25 10C1.25 5.16751 5.16751 1.25 10 1.25C14.8325 1.25 18.75 5.16751 18.75 10ZM17.5 10C17.5 14.1421 14.1421 17.5 10 17.5C5.85786 17.5 2.5 14.1421 2.5 10C2.5 5.85786 5.85786 2.5 10 2.5C14.1421 2.5 17.5 5.85786 17.5 10Z" fill="#617F90"/>
</svg>
