<svg width="20" height="14" viewBox="0 0 20 14" fill="none" xmlns="http://www.w3.org/2000/svg">
<path opacity="0.4" fill-rule="evenodd" clip-rule="evenodd" d="M19.9154 7.30638C19.8301 7.44369 15.7167 14 10 14C4.28327 14 0.169883 7.44369 0.0846438 7.30638C-0.0282146 7.12223 -0.0282146 6.87777 0.0846438 6.69361C0.169883 6.55631 4.28327 0 10 0C15.7167 0 19.8301 6.55631 19.9154 6.69361C20.0282 6.87777 20.0282 7.12223 19.9154 7.30638ZM10 4.30769C8.6857 4.30769 7.61902 5.51385 7.61902 7C7.61902 8.48615 8.6857 9.69231 10 9.69231C11.3143 9.69231 12.381 8.48615 12.381 7C12.381 5.51385 11.3143 4.30769 10 4.30769Z" fill="black"/>
</svg>
