<svg width="18" height="19" viewBox="0 0 18 19" fill="none" xmlns="http://www.w3.org/2000/svg">
<g id="Menu Icons" clip-path="url(#clip0_4937_23857)">
<g id="Vector">
<path d="M11.8069 12.7931H6.20728C5.83856 12.7931 5.54066 13.1012 5.54066 13.4803C5.54066 13.8593 5.83856 14.1675 6.20728 14.1675H11.8069C12.1746 14.1675 12.4735 13.8593 12.4735 13.4803C12.4735 13.1012 12.1746 12.7931 11.8069 12.7931Z" fill="#617F90"/>
<path d="M16.6306 5.40471L10.9643 1.16034C9.79668 0.279886 8.21142 0.279886 7.04376 1.16034L1.37746 5.40471C0.203588 6.27874 -0.285981 7.83456 0.16711 9.25298L2.3326 16.1249C2.77529 17.5433 4.0575 18.5032 5.50333 18.5H12.505C13.9528 18.4989 15.2328 17.5326 15.6704 16.1109L17.8359 9.23902C18.2827 7.82706 17.7962 6.27772 16.6306 5.40471ZM16.5723 8.82143L14.4099 15.6933H14.4089C14.1412 16.5438 13.3725 17.1193 12.5048 17.1171H5.50315C4.6355 17.1193 3.8668 16.5438 3.59911 15.6933L1.43675 8.82143C1.16594 7.97211 1.45966 7.03902 2.16171 6.51505L7.82802 2.27068C8.52797 1.74347 9.47999 1.74347 10.1799 2.27068L15.8462 6.51505C16.5483 7.03902 16.842 7.97211 16.5712 8.82143H16.5723Z" fill="#617F90"/>
</g>
</g>
<defs>
<clipPath id="clip0_4937_23857">
<rect width="18" height="18" fill="white" transform="translate(0 0.5)"/>
</clipPath>
</defs>
</svg>
