<svg width="24" height="24" viewBox="0 0 24 24" fill="none" xmlns="http://www.w3.org/2000/svg">
<path d="M23.9821 19.4177C23.9386 19.2274 23.837 19.0654 23.6987 18.9658C23.5604 18.8661 23.3961 18.8367 23.2406 18.8837L21.702 19.3948C22.5439 17.8624 23.0544 16.0896 23.185 14.2448C23.3112 12.5189 23.1068 10.7806 22.5883 9.17022C22.0699 7.55988 21.2519 6.1227 20.2004 4.97484C20.0789 4.85071 19.9235 4.78868 19.7661 4.80145C19.6087 4.81421 19.4612 4.90081 19.3538 5.04351C19.2458 5.19535 19.191 5.39391 19.2015 5.5956C19.2119 5.79729 19.2867 5.98563 19.4095 6.11928C20.3155 7.10674 21.0204 8.34385 21.467 9.73038C21.9136 11.1169 22.0893 12.6138 21.98 14.0999C21.8742 15.6651 21.449 17.1718 20.7442 18.4793L20.5897 16.5642C20.6013 16.4515 20.5925 16.3371 20.5637 16.2291C20.5349 16.1212 20.487 16.0226 20.4234 15.9405C20.3598 15.8583 20.2822 15.7948 20.1962 15.7544C20.1102 15.7141 20.0179 15.698 19.9262 15.7072C19.8345 15.7165 19.7456 15.751 19.6661 15.8081C19.5865 15.8652 19.5183 15.9436 19.4664 16.0374C19.4146 16.1312 19.3803 16.2382 19.3662 16.3505C19.352 16.4627 19.3584 16.5775 19.3847 16.6863L19.6937 21.5998L23.5557 20.3333C23.7087 20.278 23.8385 20.1519 23.918 19.9813C23.9974 19.8107 24.0204 19.6088 23.9821 19.4177Z" fill="#617F90"/>
<path d="M1.52566 13.0687C1.62634 13.1353 1.74022 13.1779 1.85897 13.1934C2.05666 13.2201 2.25661 13.1655 2.41544 13.0415C2.57426 12.9175 2.67916 12.7341 2.70738 12.5311C3.02038 10.1541 4.19487 7.98646 5.99565 6.46224C7.79643 4.93802 10.0906 4.16976 12.4187 4.3113L10.7218 5.50337C10.6018 5.59639 10.5113 5.72406 10.462 5.87011C10.4127 6.01616 10.4068 6.174 10.445 6.32354C10.4831 6.47307 10.5637 6.60755 10.6764 6.70985C10.7891 6.81215 10.9289 6.87765 11.0779 6.89801C11.2485 6.91406 11.4194 6.87011 11.5627 6.77335L15.6002 3.92173L12.146 0.353316C12.0845 0.25644 12.0028 0.174858 11.9069 0.114493C11.8109 0.0541277 11.7031 0.0164939 11.5913 0.00432381C11.4794 -0.00784629 11.3663 0.00575276 11.2602 0.0441337C11.1542 0.0825146 11.0577 0.144714 10.9779 0.226217C10.8981 0.307719 10.8369 0.406479 10.7988 0.515327C10.7607 0.624175 10.7467 0.740379 10.7577 0.855502C10.7687 0.970625 10.8046 1.08178 10.8625 1.18089C10.9205 1.28001 10.9993 1.3646 11.093 1.42852L12.3808 2.75304C9.69225 2.62082 7.05321 3.53011 4.98466 5.30142C2.91611 7.07273 1.56837 9.57732 1.20751 12.3208C1.18808 12.4635 1.20754 12.609 1.26371 12.741C1.31988 12.8731 1.41055 12.9865 1.52566 13.0687Z" fill="#617F90"/>
<path d="M14.7002 22.135C13.5552 22.5001 12.3474 22.6271 11.1513 22.5082C9.6946 22.3657 8.29454 21.8715 7.07199 21.0682C5.84944 20.2649 4.84114 19.1768 4.13414 17.8976L5.95992 18.5782C6.12822 18.6074 6.30143 18.5769 6.44965 18.4922C6.59787 18.4075 6.71181 18.2737 6.77178 18.1141C6.83176 17.9545 6.83402 17.779 6.77816 17.6178C6.72231 17.4567 6.61185 17.3201 6.46586 17.2316L3.10026 15.9875L2.02239 15.5996L1.20849 20.2468C1.18027 20.4325 1.22467 20.622 1.3325 20.7759C1.44032 20.9298 1.60332 21.0365 1.78775 21.0738H1.9124C2.08498 21.077 2.25313 21.0192 2.38726 20.9108C2.52138 20.8024 2.61288 20.6502 2.64565 20.481L2.95361 18.7246C3.78293 20.1746 4.9478 21.4055 6.35093 22.3145C7.75407 23.2236 9.35475 23.7843 11.0193 23.95C12.411 24.0876 13.8161 23.9382 15.1475 23.5109C15.317 23.4408 15.454 23.3099 15.5316 23.1439C15.6091 22.9779 15.6214 22.789 15.5662 22.6143C15.5109 22.4397 15.3921 22.2921 15.2331 22.2006C15.0742 22.1092 14.8866 22.0806 14.7075 22.1204L14.7002 22.135Z" fill="#617F90"/>
<path d="M14.4 9.59961H9.6C9.44087 9.59961 9.28826 9.67547 9.17574 9.81049C9.06321 9.94552 9 10.1287 9 10.3196V16.0796C9 16.2706 9.06321 16.4537 9.17574 16.5887C9.28826 16.7238 9.44087 16.7996 9.6 16.7996H14.4C14.5591 16.7996 14.7117 16.7238 14.8243 16.5887C14.9368 16.4537 15 16.2706 15 16.0796V10.3196C15 10.1287 14.9368 9.94552 14.8243 9.81049C14.7117 9.67547 14.5591 9.59961 14.4 9.59961ZM13.8 15.3596H10.2V11.0396H13.8V15.3596Z" fill="#617F90"/>
</svg>
