<svg width="24" height="24" viewBox="0 0 24 24" fill="none" xmlns="http://www.w3.org/2000/svg">
<path d="M4 18.9117V7.89653C4 4.92836 4 3.44428 4.87868 2.52219C5.75736 1.6001 7.17157 1.6001 10 1.6001H14C16.8284 1.6001 18.2426 1.6001 19.1213 2.52219C20 3.44428 20 4.92836 20 7.89653V18.9117C20 20.4839 20 21.2699 19.538 21.5793C18.7831 22.0851 17.6161 21.0246 17.0291 20.6397C16.5441 20.3216 16.3017 20.1625 16.0325 20.1534C15.7417 20.1434 15.4949 20.296 14.9709 20.6397L13.06 21.893C12.5445 22.231 12.2868 22.4001 12 22.4001C11.7132 22.4001 11.4555 22.231 10.94 21.893L9.02913 20.6397C8.54415 20.3216 8.30166 20.1625 8.03253 20.1534C7.74172 20.1434 7.49493 20.296 6.97087 20.6397C6.38395 21.0246 5.21687 22.0851 4.46195 21.5793C4 21.2699 4 20.4839 4 18.9117Z" stroke="#EF3249" stroke-width="1.8" stroke-linecap="round" stroke-linejoin="round"/>
<path d="M11.2002 11.2002H7.2002" stroke="#EF3249" stroke-width="1.8" stroke-linecap="round" stroke-linejoin="round"/>
<path d="M14.4002 7.2002H7.2002" stroke="#EF3249" stroke-width="1.8" stroke-linecap="round" stroke-linejoin="round"/>
</svg>
