<svg width="20" height="20" viewBox="0 0 20 20" fill="none" xmlns="http://www.w3.org/2000/svg">
<path d="M3.33334 15.538V6.71172C3.33334 4.33338 3.33334 3.14421 4.06558 2.40536C4.79781 1.6665 5.97632 1.6665 8.33334 1.6665H11.6667C14.0237 1.6665 15.2022 1.6665 15.9344 2.40536C16.6667 3.14421 16.6667 4.33338 16.6667 6.71172V15.538C16.6667 16.7978 16.6667 17.4276 16.2817 17.6755C15.6526 18.0808 14.6801 17.231 14.1909 16.9226C13.7868 16.6677 13.5848 16.5403 13.3604 16.5329C13.1181 16.5249 12.9124 16.6472 12.4758 16.9226L10.8833 17.9268C10.4538 18.1977 10.239 18.3332 10 18.3332C9.76101 18.3332 9.54626 18.1977 9.11668 17.9268L7.52429 16.9226C7.12014 16.6677 6.91806 16.5403 6.69378 16.5329C6.45144 16.5249 6.24579 16.6472 5.80907 16.9226C5.31997 17.231 4.3474 18.0808 3.7183 17.6755C3.33334 17.4276 3.33334 16.7978 3.33334 15.538Z" stroke="white" stroke-width="1.5" stroke-linecap="round" stroke-linejoin="round"/>
<path d="M9.16666 9.1665H6.66666" stroke="white" stroke-width="1.5" stroke-linecap="round" stroke-linejoin="round"/>
<path d="M11.6667 5.8335H6.66666" stroke="white" stroke-width="1.5" stroke-linecap="round" stroke-linejoin="round"/>
</svg>
