<svg width="27" height="26" viewBox="0 0 27 26" fill="none" xmlns="http://www.w3.org/2000/svg">
<g id="Frame">
<g id="Group">
<path id="Vector" d="M1.8379 8.70268C5.17755 10.4623 8.51121 12.2219 11.8449 13.9755C12.4494 14.2927 13.0898 14.4423 13.8439 14.4423C14.4603 14.4423 15.1127 14.2867 15.7232 13.9635C19.0449 12.2219 22.3666 10.4802 25.6943 8.73859C26.1012 8.52313 26.3347 8.19395 26.3347 7.7331C26.3347 7.28423 26.1072 6.96103 25.7062 6.75156C22.3905 5.00991 19.0748 3.25031 15.7531 1.51465C14.4484 0.832356 13.1077 0.832356 11.803 1.51465C8.48129 3.24433 5.17156 4.98597 1.85585 6.72163C1.44289 6.93709 1.21545 7.26627 1.21545 7.72712C1.21545 8.16403 1.44289 8.4932 1.8379 8.70268ZM3.9985 7.40393C6.84737 5.90767 9.69625 4.41141 12.5511 2.92113C13.3471 2.50218 14.1731 2.4962 14.9691 2.90916C17.8359 4.41141 20.6968 5.92562 23.5636 7.43984C23.6953 7.51166 23.809 7.58946 23.803 7.76303C23.797 7.91864 23.6833 7.99046 23.5636 8.0563C20.7027 9.55256 17.8419 11.0548 14.987 12.5511C14.61 12.7486 14.203 12.8443 13.8319 12.8443C13.3471 12.8443 12.9461 12.7486 12.5631 12.5511C9.70822 11.0488 6.85336 9.54059 3.99251 8.03834C3.86084 7.96652 3.73515 7.8947 3.73515 7.72712C3.74114 7.54757 3.86683 7.47575 3.9985 7.40393Z" fill="#617F90" stroke="#617F90" stroke-width="0.4"/>
<path id="Vector_2" d="M1.55062 14.1851C4.98604 15.9148 8.42145 17.6385 11.8628 19.3682C12.4733 19.6734 13.1137 19.835 13.8439 19.823C14.5022 19.835 15.1666 19.6495 15.801 19.3323C18.4464 18.0036 21.0978 16.6809 23.7491 15.3582C24.5332 14.9692 25.3172 14.5801 26.1012 14.1851C26.4484 14.0056 26.616 13.6944 26.5621 13.3412C26.5082 12.9881 26.2628 12.7308 25.9157 12.6589C25.6883 12.6111 25.4848 12.6949 25.2873 12.7966C21.8878 14.4964 18.4883 16.1901 15.0948 17.8899C14.2209 18.3268 13.3651 18.3208 12.4913 17.8839C9.0798 16.1722 5.67431 14.4604 2.27481 12.7547C1.77805 12.5033 1.31122 12.629 1.09576 13.054C0.874314 13.4849 1.05387 13.9397 1.55062 14.1851Z" fill="#617F90" stroke="#617F90" stroke-width="0.4"/>
<path id="Vector_3" d="M26.2269 18.1891C25.9217 17.9676 25.6105 18.0095 25.2873 18.1651C21.8758 19.7931 18.4584 21.409 15.0529 23.0369C14.203 23.4439 13.3771 23.4439 12.5272 23.031C9.11571 21.3911 5.69227 19.7571 2.27481 18.1292C1.77207 17.8898 1.31122 18.0155 1.10175 18.4464C0.89227 18.8773 1.08379 19.3322 1.58055 19.5716C5.0399 21.2295 8.49925 22.8813 11.9586 24.5392C12.5332 24.8145 13.1436 24.9522 13.784 24.9641C14.4424 24.9581 15.0648 24.8145 15.6633 24.5332C16.8065 23.9886 17.9496 23.4439 19.0928 22.8993C21.385 21.81 23.6833 20.7148 25.9756 19.6255C26.2628 19.4878 26.4963 19.3083 26.5501 18.9671C26.58 18.6499 26.4903 18.3806 26.2269 18.1891Z" fill="#617F90" stroke="#617F90" stroke-width="0.4"/>
</g>
</g>
</svg>
