<svg width="28" height="28" viewBox="0 0 28 28" fill="none" xmlns="http://www.w3.org/2000/svg">
<path d="M8.24842 13.1847V23.6816C8.24842 24.0296 8.11018 24.3633 7.86411 24.6094C7.61805 24.8554 7.28431 24.9937 6.93631 24.9937H4.3121C3.96411 24.9937 3.63037 24.8554 3.38431 24.6094C3.13824 24.3633 3 24.0296 3 23.6816V14.4968C3 14.1488 3.13824 13.8151 3.38431 13.569C3.63037 13.323 3.96411 13.1847 4.3121 13.1847H8.24842ZM8.24842 13.1847C9.64039 13.1847 10.9753 12.6318 11.9596 11.6475C12.9439 10.6632 13.4968 9.32828 13.4968 7.93632V6.62421C13.4968 5.92823 13.7733 5.26075 14.2655 4.76861C14.7576 4.27648 15.4251 4 16.121 4C16.817 4 17.4845 4.27648 17.9766 4.76861C18.4688 5.26075 18.7453 5.92823 18.7453 6.62421V13.1847H22.6816C23.3776 13.1847 24.045 13.4612 24.5372 13.9533C25.0293 14.4455 25.3058 15.113 25.3058 15.8089L23.9937 22.3695C23.805 23.1744 23.447 23.8656 22.9737 24.3389C22.5004 24.8122 21.9374 25.042 21.3695 24.9937H12.1847C11.1408 24.9937 10.1395 24.579 9.40134 23.8408C8.66314 23.1026 8.24842 22.1013 8.24842 21.0574" stroke="black" stroke-width="1.9" stroke-linecap="round" stroke-linejoin="round"/>
</svg>
