<svg width="154" height="45" viewBox="0 0 154 45" fill="none" xmlns="http://www.w3.org/2000/svg">
<path d="M12.1113 5.12158H0V40.0293H12.1113C17.0461 40.0293 21.2473 38.3461 24.5853 35.031C27.9233 31.7159 29.6211 27.5731 29.6211 22.7245V22.5761C29.6211 17.6597 27.9111 13.4725 24.539 10.1449C21.1668 6.81727 16.9806 5.12298 12.1113 5.12298V5.12158ZM20.901 31.3846C18.651 33.7222 15.6961 34.9076 12.1113 34.9076H5.42977V10.2419H12.1113C15.6566 10.2419 18.6088 11.4107 20.8737 13.7081C23.1385 16.0055 24.2826 18.992 24.2826 22.5706C24.2826 26.0771 23.144 29.0386 20.8955 31.3777" fill="black"/>
<path d="M40.4302 5.17163H34.9473V39.9768H40.4302V5.17163Z" fill="black"/>
<path d="M46.9888 39.9796H52.3749V25.2481V25.0082H52.6066H68.1828V20.089H52.6066H52.3749V19.8533V10.4806V10.2421H52.6066H70.1613V5.1731H46.9888V39.9796Z" fill="black"/>
<path d="M99.1909 30.1824C98.386 31.3923 97.354 32.4289 96.1542 33.2326C94.3912 34.4083 92.3035 35.0087 89.954 35.0087C86.5356 35.0087 83.6543 33.7886 81.3853 31.3788C81.0231 30.9918 80.6852 30.582 80.3736 30.1519C78.785 27.982 77.9736 25.4156 77.9736 22.5261C77.9736 19.6367 78.7536 17.0855 80.285 14.9309C80.6212 14.451 80.9889 13.9948 81.3853 13.5652C83.6543 11.161 86.5356 9.94094 89.954 9.94094C92.2721 9.94094 94.3598 10.5732 96.1584 11.8196C97.3627 12.6572 98.4062 13.7116 99.2373 14.9309L103.391 11.6463C102.251 10.1013 100.875 8.75177 99.315 7.64907C96.5756 5.70797 93.4231 4.71802 89.954 4.71802C85.1501 4.71802 81.0036 6.47609 77.6314 9.93954C77.1051 10.4802 76.6102 11.0515 76.1492 11.6505C73.7575 14.7576 72.5425 18.418 72.5425 22.5247C72.5425 26.6634 73.7766 30.339 76.2079 33.4544C76.6523 34.0234 77.1276 34.5668 77.6314 35.0822C81.0063 38.5318 85.1501 40.2802 89.954 40.2802C93.4271 40.2802 96.5756 39.3096 99.3177 37.3686C100.853 36.2904 102.209 34.9701 103.335 33.4572L99.1909 30.1824Z" fill="black"/>
<path d="M153.818 20.7891L133.376 0V5.83714L148.08 20.7891H153.818Z" fill="black"/>
<path d="M109.566 20.7891L130.007 0V5.83714L115.303 20.7891H109.566Z" fill="black"/>
<path d="M109.566 24.2112L130.007 45.0002V39.163L115.303 24.2112H109.566Z" fill="black"/>
<path d="M153.818 24.2112L133.376 45.0002V39.163L148.08 24.2112H153.818Z" fill="black"/>
<path d="M133.728 11.0142L131.691 8.94287L129.658 11.0115V33.5809L131.691 35.6481L133.728 33.5767V11.0142Z" fill="black"/>
<path d="M126.641 30.5374V14.0769L122.589 18.1879V26.3904L126.641 30.5374Z" fill="black"/>
<path d="M136.748 30.5374V14.0769L140.8 18.1879V26.3904L136.748 30.5374Z" fill="black"/>
</svg>
