<svg width="60" height="60" viewBox="0 0 60 60" fill="none" xmlns="http://www.w3.org/2000/svg">
<g id="Group 1">
<path id="Vector" d="M60.0008 27.7189L32.2842 0V7.78287L52.2203 27.7189H60.0008Z" fill="#617F90"/>
<path id="Vector_2" d="M0 27.7189L27.7152 0V7.78287L7.77757 27.7189H0Z" fill="#617F90"/>
<path id="Vector_3" d="M0 32.2812L27.7152 60V52.2171L7.77757 32.2812H0Z" fill="#617F90"/>
<path id="Vector_4" d="M60.0008 32.2812L32.2842 60V52.2171L52.2203 32.2812H60.0008Z" fill="#617F90"/>
<path id="Vector_5" d="M32.7603 14.6857L29.9978 11.9238L27.2412 14.682V44.7746L29.9978 47.5309L32.7603 44.769V14.6857Z" fill="#617F90"/>
<path id="Vector_6" d="M23.1483 40.7164V18.769L17.6543 24.2504V35.1871L23.1483 40.7164Z" fill="#617F90"/>
<path id="Vector_7" d="M36.8545 40.7164V18.769L42.3484 24.2504V35.1871L36.8545 40.7164Z" fill="#617F90"/>
</g>
</svg>
