<svg width="24" height="24" viewBox="0 0 24 24" fill="none" xmlns="http://www.w3.org/2000/svg">
<path fill-rule="evenodd" clip-rule="evenodd" d="M14.7493 4.09404L5.76103 7.30415H4.17402C2.42106 7.30415 1 8.72521 1 10.4782V12.0652C1 13.24 1.63829 14.2658 2.58701 14.8146V18.4132C2.58701 19.2897 3.29754 20.0002 4.17402 20.0002H5.76103C6.63752 20.0002 7.34805 19.2897 7.34805 18.4132V15.806L14.7493 18.4493C15.7829 18.8184 16.8701 18.0522 16.8701 16.9548V5.5886C16.8701 4.49113 15.7829 3.72492 14.7493 4.09404ZM7.34805 14.1208L15.2831 16.9548V5.5886L7.34805 8.42255V14.1208ZM4.17402 8.89116H5.76103V13.6522H4.17402C3.29754 13.6522 2.58701 12.9417 2.58701 12.0652V10.4782C2.58701 9.60169 3.29754 8.89116 4.17402 8.89116ZM4.17402 15.2392H5.76103V18.4132H4.17402V15.2392Z" fill="white"/>
<path d="M20.7415 9.31611L22.1923 7.86524C22.5022 7.55536 22.5022 7.05294 22.1923 6.74306C21.8824 6.43317 21.38 6.43317 21.0701 6.74306L19.6193 8.19392C19.3094 8.50381 19.3094 9.00623 19.6193 9.31611C19.9291 9.62599 20.4316 9.62599 20.7415 9.31611Z" fill="white"/>
<path d="M23.2182 11.532C23.2182 11.9703 22.8629 12.3256 22.4247 12.3256H19.2506C18.8124 12.3256 18.4571 11.9703 18.4571 11.532C18.4571 11.0938 18.8124 10.7385 19.2506 10.7385H22.4247C22.8629 10.7385 23.2182 11.0938 23.2182 11.532Z" fill="white"/>
<path d="M22.1923 15.3352C22.5022 15.6451 22.5022 16.1475 22.1923 16.4574C21.8824 16.7673 21.38 16.7673 21.0701 16.4574L19.6193 15.0066C19.3094 14.6967 19.3094 14.1943 19.6193 13.8844C19.9291 13.5745 20.4316 13.5745 20.7415 13.8844L22.1923 15.3352Z" fill="white"/>
</svg>
