<svg width="29" height="29" viewBox="0 0 29 29" fill="none" xmlns="http://www.w3.org/2000/svg">
<path d="M22.6562 6.34375C22.6562 7.5282 21.8988 8.53574 20.8419 8.90845C20.8431 8.95965 20.8437 9.011 20.8437 9.0625C20.8437 9.67504 20.7569 10.2673 20.5949 10.8277C22.7859 10.5092 24.4687 8.623 24.4687 6.34375C24.4687 3.84121 22.44 1.8125 19.9375 1.8125C18.6924 1.8125 17.5645 2.31472 16.7455 3.12763C17.3574 3.3593 17.9242 3.68289 18.4289 4.08156C18.8606 3.79316 19.3794 3.625 19.9375 3.625C21.439 3.625 22.6562 4.84223 22.6562 6.34375Z" fill="black"/>
<path d="M25.375 17.2188C25.375 17.6196 25.11 18.2567 24.1034 18.8858C23.9368 18.99 23.7561 19.0891 23.5625 19.1819V19.915L23.5626 19.9375L23.5625 19.96V21.1438C25.7295 20.3603 27.1875 18.896 27.1875 17.2188C27.1875 14.7162 23.9416 12.6875 19.9375 12.6875V14.5C21.6542 14.5 23.1223 14.9385 24.1034 15.5517C25.11 16.1808 25.375 16.8179 25.375 17.2188Z" fill="black"/>
<path d="M18.6659 21.6046C19.6725 20.9754 19.9375 20.3383 19.9375 19.9375C19.9375 19.5367 19.6725 18.8996 18.6659 18.2704C17.6848 17.6572 16.2167 17.2188 14.5 17.2188V15.4062C18.5041 15.4062 21.75 17.435 21.75 19.9375C21.75 21.6147 20.292 23.0791 18.125 23.8625V22.6787L18.1251 22.6562L18.125 22.6338V21.9006C18.3186 21.8078 18.4993 21.7087 18.6659 21.6046Z" fill="black"/>
<path fill-rule="evenodd" clip-rule="evenodd" d="M16.3125 22.6562C16.3125 25.1588 13.0666 27.1875 9.0625 27.1875C5.05844 27.1875 1.8125 25.1588 1.8125 22.6562C1.8125 20.1537 5.05844 18.125 9.0625 18.125C13.0666 18.125 16.3125 20.1537 16.3125 22.6562ZM14.5 22.6562C14.5 23.0571 14.235 23.6942 13.2284 24.3233C12.2473 24.9365 10.7792 25.375 9.0625 25.375C7.34582 25.375 5.87768 24.9365 4.8966 24.3233C3.88997 23.6942 3.625 23.0571 3.625 22.6562C3.625 22.2554 3.88997 21.6183 4.8966 20.9892C5.87768 20.376 7.34582 19.9375 9.0625 19.9375C10.7792 19.9375 12.2473 20.376 13.2284 20.9892C14.235 21.6183 14.5 22.2554 14.5 22.6562Z" fill="black"/>
<path d="M15.4044 11.6272C16.4613 11.2545 17.2187 10.2469 17.2187 9.0625C17.2187 7.56098 16.0015 6.34375 14.5 6.34375C13.9419 6.34375 13.4231 6.51191 12.9914 6.80031C12.4867 6.40164 11.9199 6.07805 11.308 5.84638C12.127 5.03347 13.2548 4.53125 14.5 4.53125C17.0025 4.53125 19.0312 6.55996 19.0312 9.0625C19.0312 11.3418 17.3484 13.228 15.1574 13.5464C15.3194 12.9861 15.4062 12.3938 15.4062 11.7812C15.4062 11.7298 15.4056 11.6784 15.4044 11.6272Z" fill="black"/>
<path fill-rule="evenodd" clip-rule="evenodd" d="M13.5938 11.7812C13.5938 14.2838 11.565 16.3125 9.0625 16.3125C6.55996 16.3125 4.53125 14.2838 4.53125 11.7812C4.53125 9.27871 6.55996 7.25 9.0625 7.25C11.565 7.25 13.5938 9.27871 13.5938 11.7812ZM11.7812 11.7812C11.7812 13.2828 10.564 14.5 9.0625 14.5C7.56098 14.5 6.34375 13.2828 6.34375 11.7812C6.34375 10.2797 7.56098 9.0625 9.0625 9.0625C10.564 9.0625 11.7812 10.2797 11.7812 11.7812Z" fill="black"/>
</svg>
