<svg width="20" height="18" viewBox="0 0 20 18" fill="none" xmlns="http://www.w3.org/2000/svg">
<g id="Frame">
<path id="Vector" d="M17.1302 13.8002C17.7596 13.8002 18.2603 13.423 18.7098 12.8955C19.63 11.8157 18.1192 10.9528 17.5429 10.5303C16.9572 10.1007 16.3032 9.85732 15.6401 9.8002M14.8 8.2002C15.9598 8.2002 16.9001 7.30476 16.9001 6.2002C16.9001 5.09563 15.9598 4.2002 14.8 4.2002" stroke="#617F90" stroke-width="1.2" stroke-linecap="round"/>
<path id="Vector_2" d="M2.78077 13.8002C2.18132 13.8002 1.70454 13.423 1.27643 12.8955C0.400073 11.8157 1.83894 10.9528 2.38771 10.5303C2.94558 10.1007 3.56846 9.85732 4.2 9.8002M4.6 8.2002C3.49543 8.2002 2.6 7.30476 2.6 6.2002C2.6 5.09563 3.49543 4.2002 4.6 4.2002" stroke="#617F90" stroke-width="1.2" stroke-linecap="round"/>
<path id="Vector_3" d="M6.74664 11.6888C5.89778 12.1942 3.67212 13.2263 5.0277 14.5177C5.68988 15.1486 6.42739 15.5998 7.35461 15.5998H12.6456C13.5728 15.5998 14.3103 15.1486 14.9725 14.5177C16.3281 13.2263 14.1024 12.1942 13.2536 11.6888C11.263 10.5035 8.73717 10.5035 6.74664 11.6888Z" stroke="#617F90" stroke-width="1.2" stroke-linecap="round" stroke-linejoin="round"/>
<path id="Vector_4" d="M13 5.10039C13 6.59156 11.6569 7.80039 10 7.80039C8.34316 7.80039 7 6.59156 7 5.10039C7 3.60922 8.34316 2.40039 10 2.40039C11.6569 2.40039 13 3.60922 13 5.10039Z" stroke="#617F90" stroke-width="1.2"/>
</g>
</svg>
