<svg width="51" height="50" viewBox="0 0 51 50" fill="none" xmlns="http://www.w3.org/2000/svg">
<g id="Frame">
<path id="Vector" d="M23.4167 16.6665C32.6214 16.6665 40.0833 13.8683 40.0833 10.4165C40.0833 6.96472 32.6214 4.1665 23.4167 4.1665C14.2119 4.1665 6.75 6.96472 6.75 10.4165C6.75 13.8683 14.2119 16.6665 23.4167 16.6665Z" stroke="black" stroke-width="2.4" stroke-linecap="round" stroke-linejoin="round"/>
<path id="Vector_2" d="M23.4167 31.25C14.2119 31.25 6.75 28.4519 6.75 25" stroke="black" stroke-width="2.4" stroke-linecap="round" stroke-linejoin="round"/>
<path id="Vector_3" d="M23.4167 45.8332C14.2119 45.8332 6.75 43.035 6.75 39.5832V10.4165M40.0833 10.4165V21.8748" stroke="black" stroke-width="2.4" stroke-linecap="round" stroke-linejoin="round"/>
<path id="Vector_4" d="M13 22.9165C14.2533 23.2932 15.6549 23.7286 17.1667 23.9582" stroke="black" stroke-width="2.4" stroke-linecap="round"/>
<path id="Vector_5" d="M13 37.5C14.2533 37.8767 15.6549 38.3121 17.1667 38.5417" stroke="black" stroke-width="2.4" stroke-linecap="round"/>
<path id="Vector_6" d="M29 30L35.5 36.5M35.5 36.5L42 43M35.5 36.5L42 30M35.5 36.5L29 43" stroke="black" stroke-width="2.4" stroke-linecap="round"/>
</g>
</svg>
