<svg width="32" height="30" viewBox="0 0 32 30" fill="none" xmlns="http://www.w3.org/2000/svg">
<path d="M1 3.75H10.7188C12.1883 3.75 13.6067 4.31173 14.705 5.32869L19.75 10" stroke="white" stroke-width="1.5" stroke-linecap="round" stroke-linejoin="round"/>
<path d="M6 17.5H1" stroke="white" stroke-width="1.5" stroke-linecap="round" stroke-linejoin="round"/>
<path d="M11.0868 8.75L14.1215 11.5818C14.9595 12.3637 14.9595 13.6315 14.1215 14.4135C13.2835 15.1955 11.9248 15.1955 11.0868 14.4135L8.81074 12.2897C7.50477 13.5083 5.43722 13.6454 3.95967 12.6114L3.5 12.2897" stroke="white" stroke-width="1.5" stroke-linecap="round" stroke-linejoin="round"/>
<path d="M6 13.6932V23.2955C6 24.9273 7.31681 26.25 8.94118 26.25H28.0588C29.6832 26.25 31 24.9273 31 23.2955V12.9545C31 11.3228 29.6832 10 28.0588 10H12.6176" stroke="white" stroke-width="1.5" stroke-linecap="round" stroke-linejoin="round"/>
<path d="M21 17.5C21 18.8807 19.8807 20 18.5 20C17.1193 20 16 18.8807 16 17.5C16 16.1193 17.1193 15 18.5 15C19.8807 15 21 16.1193 21 17.5Z" stroke="white" stroke-width="1.5" stroke-linecap="round" stroke-linejoin="round"/>
</svg>
