<svg width="26" height="24" viewBox="0 0 26 24" fill="none" xmlns="http://www.w3.org/2000/svg">
<g id="Frame">
<path id="Vector" d="M1 3H8.77504C9.95063 3 11.0854 3.44939 11.964 4.26295L16 8" stroke="#617F90" stroke-width="1.5" stroke-linecap="round" stroke-linejoin="round"/>
<path id="Vector_2" d="M5 14H1" stroke="#617F90" stroke-width="1.5" stroke-linecap="round" stroke-linejoin="round"/>
<path id="Vector_3" d="M9.06941 7L11.4972 9.2654C12.1676 9.89099 12.1676 10.9052 11.4972 11.5308C10.8268 12.1564 9.73983 12.1564 9.06941 11.5308L7.24859 9.83175C6.20381 10.8067 4.54978 10.9163 3.36773 10.0891L3 9.83175" stroke="#617F90" stroke-width="1.5" stroke-linecap="round" stroke-linejoin="round"/>
<path id="Vector_4" d="M5 10.9545V18.6364C5 19.9418 6.05345 21 7.35294 21H22.6471C23.9466 21 25 19.9418 25 18.6364V10.3636C25 9.05824 23.9466 8 22.6471 8H10.2941" stroke="#617F90" stroke-width="1.5" stroke-linecap="round" stroke-linejoin="round"/>
<path id="Vector_5" d="M17 14C17 15.1046 16.1046 16 15 16C13.8954 16 13 15.1046 13 14C13 12.8954 13.8954 12 15 12C16.1046 12 17 12.8954 17 14Z" stroke="#617F90" stroke-width="1.5" stroke-linecap="round" stroke-linejoin="round"/>
</g>
</svg>
