<svg width="20" height="20" viewBox="0 0 20 20" fill="none" xmlns="http://www.w3.org/2000/svg">
<path d="M10.75 1.51472C10.75 1.1005 10.4143 0.764718 10 0.764718C9.58583 0.764717 9.25004 1.1005 9.25004 1.51472L9.25004 9.25L1.51476 9.25C1.10055 9.25 0.764763 9.58579 0.764762 10C0.764762 10.4142 1.10055 10.75 1.51476 10.75L9.25004 10.75L9.25004 18.4853C9.25004 18.8995 9.58583 19.2353 10 19.2353C10.4143 19.2353 10.75 18.8995 10.75 18.4853V10.75L18.4853 10.75C18.8995 10.75 19.2353 10.4142 19.2353 10C19.2353 9.58579 18.8995 9.25 18.4853 9.25L10.75 9.25L10.75 1.51472Z" fill="#292929"/>
</svg>
