<svg width="20" height="20" viewBox="0 0 20 20" fill="none" xmlns="http://www.w3.org/2000/svg">
<path d="M5.95938 6.96954C5.68044 6.6906 5.68044 6.23834 5.95938 5.95939C6.23833 5.68044 6.69059 5.68044 6.96953 5.95939L9.99999 8.98985L13.0304 5.95939C13.3094 5.68044 13.7617 5.68044 14.0406 5.95939C14.3195 6.23834 14.3195 6.6906 14.0406 6.96954L11.0101 10L14.0406 13.0305C14.3195 13.3094 14.3195 13.7617 14.0406 14.0406C13.7617 14.3196 13.3094 14.3196 13.0304 14.0406L9.99999 11.0102L6.96953 14.0406C6.69059 14.3196 6.23833 14.3196 5.95938 14.0406C5.68044 13.7617 5.68044 13.3094 5.95938 13.0305L8.98984 10L5.95938 6.96954Z" fill="#617F90"/>
<path fill-rule="evenodd" clip-rule="evenodd" d="M20 10C20 15.5228 15.5228 20 10 20C4.47715 20 0 15.5228 0 10C0 4.47715 4.47715 0 10 0C15.5228 0 20 4.47715 20 10ZM18.5714 10C18.5714 14.7339 14.7339 18.5714 10 18.5714C5.26613 18.5714 1.42857 14.7339 1.42857 10C1.42857 5.26613 5.26613 1.42857 10 1.42857C14.7339 1.42857 18.5714 5.26613 18.5714 10Z" fill="#617F90"/>
</svg>
