<svg width="18" height="18" viewBox="0 0 18 18" fill="none" xmlns="http://www.w3.org/2000/svg">
<path d="M9 1.5C4.85786 1.5 1.5 4.85786 1.5 9C1.5 13.1421 4.85786 16.5 9 16.5C13.1421 16.5 16.5 13.1421 16.5 9C16.5 8.65482 16.7798 8.375 17.125 8.375C17.4702 8.375 17.75 8.65482 17.75 9C17.75 13.8325 13.8325 17.75 9 17.75C4.16751 17.75 0.25 13.8325 0.25 9C0.25 4.16751 4.16751 0.25 9 0.25C11.4486 0.25 13.6625 1.25634 15.25 2.87631V1.5C15.25 1.15482 15.5298 0.875 15.875 0.875C16.2202 0.875 16.5 1.15482 16.5 1.5V4C16.5 4.69036 15.9404 5.25 15.25 5.25H12.75C12.4048 5.25 12.125 4.97018 12.125 4.625C12.125 4.27982 12.4048 4 12.75 4H14.5903C13.2162 2.46473 11.2209 1.5 9 1.5Z" fill="black"/>
</svg>
