<svg width="20" height="20" viewBox="0 0 20 20" fill="none" xmlns="http://www.w3.org/2000/svg">
<g opacity="0.4">
<path fill-rule="evenodd" clip-rule="evenodd" d="M9.99984 3.5415C9.17134 3.5415 8.38717 3.68288 7.65529 3.92065C7.44847 3.98783 7.29144 4.1577 7.24067 4.36915C7.1899 4.5806 7.25269 4.80324 7.40645 4.957L15.757 13.3076C16.0005 13.551 16.3949 13.5518 16.6393 13.3093C17.4413 12.5132 18.1031 11.6622 18.5063 11.0968C18.7173 10.8033 18.9582 10.4683 18.9582 9.99984C18.9582 9.53134 18.6729 9.1345 18.462 8.84109C17.8738 8.01629 16.8223 6.70464 15.3996 5.59399C13.9782 4.48435 12.142 3.5415 9.99984 3.5415ZM6.06463 5.18075C5.85307 4.96919 5.52127 4.93723 5.27322 5.10451C3.50462 6.29729 2.1684 7.95635 1.49333 8.90292C1.28237 9.19634 1.0415 9.53134 1.0415 9.99984C1.0415 10.4683 1.32672 10.8652 1.53768 11.1586C2.12589 11.9834 3.17745 13.295 4.6001 14.4057C6.02146 15.5153 7.8577 16.4582 9.99984 16.4582C11.8189 16.4582 13.4178 15.7778 14.7264 14.8952C14.8812 14.7908 14.9812 14.6228 14.9991 14.4369C15.017 14.2511 14.9509 14.067 14.8189 13.9351L6.06463 5.18075ZM7.94104 7.9165C7.411 8.4465 7.08317 9.17875 7.08317 9.98759C7.08317 11.6052 8.3945 12.9165 10.0121 12.9165C10.8209 12.9165 11.5532 12.5887 12.0832 12.0587L7.94104 7.9165Z" fill="black"/>
<path fill-rule="evenodd" clip-rule="evenodd" d="M1.91058 1.91058C2.23602 1.58515 2.76365 1.58515 3.0891 1.91058L18.0891 16.9106C18.4145 17.236 18.4145 17.7637 18.0891 18.0891C17.7637 18.4145 17.236 18.4145 16.9106 18.0891L1.91058 3.0891C1.58515 2.76365 1.58515 2.23602 1.91058 1.91058Z" fill="black"/>
</g>
</svg>
