<svg width="18" height="10" viewBox="0 0 18 10" fill="none" xmlns="http://www.w3.org/2000/svg">
<path d="M17.2667 9.48333C17.1821 9.68696 17.0203 9.84877 16.8167 9.93333C16.7165 9.97603 16.6089 9.99868 16.5 10H12.3334C12.1123 10 11.9004 9.9122 11.7441 9.75592C11.5878 9.59964 11.5 9.38768 11.5 9.16667C11.5 8.94565 11.5878 8.73369 11.7441 8.57741C11.9004 8.42113 12.1123 8.33333 12.3334 8.33333H14.4917L9.83336 3.675L7.0917 6.425C7.01423 6.50311 6.92206 6.5651 6.82051 6.60741C6.71896 6.64972 6.61004 6.6715 6.50003 6.6715C6.39002 6.6715 6.2811 6.64972 6.17955 6.60741C6.078 6.5651 5.98583 6.50311 5.90836 6.425L0.908364 1.425C0.830257 1.34753 0.768262 1.25536 0.725954 1.15382C0.683647 1.05227 0.661865 0.943344 0.661865 0.833334C0.661865 0.723325 0.683647 0.614403 0.725954 0.512854C0.768262 0.411304 0.830257 0.319138 0.908364 0.241669C0.985833 0.163561 1.078 0.101564 1.17955 0.0592575C1.2811 0.0169506 1.39002 -0.00483131 1.50003 -0.00483131C1.61004 -0.00483131 1.71896 0.0169506 1.82051 0.0592575C1.92206 0.101564 2.01423 0.163561 2.0917 0.241669L6.50003 4.65833L9.2417 1.90833C9.31917 1.83023 9.41133 1.76823 9.51288 1.72592C9.61443 1.68362 9.72335 1.66184 9.83336 1.66184C9.94337 1.66184 10.0523 1.68362 10.1538 1.72592C10.2554 1.76823 10.3476 1.83023 10.425 1.90833L15.6667 7.15833V5C15.6667 4.77899 15.7545 4.56703 15.9108 4.41075C16.0671 4.25446 16.279 4.16667 16.5 4.16667C16.721 4.16667 16.933 4.25446 17.0893 4.41075C17.2456 4.56703 17.3334 4.77899 17.3334 5V9.16667C17.332 9.27556 17.3094 9.38315 17.2667 9.48333Z" fill="#B61D22"/>
</svg>
