<svg width="24" height="24" viewBox="0 0 24 24" fill="none" xmlns="http://www.w3.org/2000/svg">
<path d="M24 11.3333L12.973 0V3.18216L20.9045 11.3333H24Z" fill="white"/>
<path d="M0 11.3333L11.027 0V3.18216L3.09445 11.3333H0Z" fill="white"/>
<path d="M0 12.667L11.027 24.0003V20.8181L3.09445 12.667H0Z" fill="white"/>
<path d="M24 12.667L12.973 24.0003V20.8181L20.9045 12.667H24Z" fill="white"/>
<path d="M12.973 5.8046L11.999 4.66699L11.0271 5.80309V18.1983L11.999 19.3337L12.973 18.196V5.8046Z" fill="white"/>
<path d="M9.72978 16.6668V7.3335L7.13519 9.66451V14.3155L9.72978 16.6668Z" fill="white"/>
<path d="M14.9189 16.6668V7.3335L16.8649 9.66451V14.3155L14.9189 16.6668Z" fill="white"/>
</svg>
