<svg width="28" height="28" viewBox="0 0 28 28" fill="none" xmlns="http://www.w3.org/2000/svg">
<path fill-rule="evenodd" clip-rule="evenodd" d="M14 2.75C9.85786 2.75 6.5 6.10786 6.5 10.25V15.875C6.5 17.4283 5.2408 18.6875 3.6875 18.6875C2.1342 18.6875 0.875 17.4283 0.875 15.875V12.125C0.875 10.5717 2.1342 9.3125 3.6875 9.3125C4.02779 9.3125 4.35396 9.37293 4.65587 9.48365C5.04576 4.66443 9.08035 0.875 14 0.875C18.9197 0.875 22.9542 4.66443 23.3441 9.48365C23.646 9.37293 23.9722 9.3125 24.3125 9.3125C25.8658 9.3125 27.125 10.5717 27.125 12.125V15.875C27.125 17.4283 25.8658 18.6875 24.3125 18.6875C23.9838 18.6875 23.6682 18.6311 23.375 18.5275V20.5625C23.375 22.6336 21.6961 24.3125 19.625 24.3125H17.6319C17.2156 25.9299 15.7473 27.125 14 27.125C11.9289 27.125 10.25 25.4461 10.25 23.375C10.25 21.3039 11.9289 19.625 14 19.625C15.7473 19.625 17.2156 20.8201 17.6319 22.4375H19.625C20.6605 22.4375 21.5 21.598 21.5 20.5625V10.25C21.5 6.10786 18.1421 2.75 14 2.75ZM23.375 15.875C23.375 16.3928 23.7947 16.8125 24.3125 16.8125C24.8303 16.8125 25.25 16.3928 25.25 15.875V12.125C25.25 11.6072 24.8303 11.1875 24.3125 11.1875C23.7947 11.1875 23.375 11.6072 23.375 12.125V15.875ZM3.6875 11.1875C4.20527 11.1875 4.625 11.6072 4.625 12.125V15.875C4.625 16.3928 4.20527 16.8125 3.6875 16.8125C3.16973 16.8125 2.75 16.3928 2.75 15.875V12.125C2.75 11.6072 3.16973 11.1875 3.6875 11.1875ZM14 25.25C15.0355 25.25 15.875 24.4105 15.875 23.375C15.875 22.3395 15.0355 21.5 14 21.5C12.9645 21.5 12.125 22.3395 12.125 23.375C12.125 24.4105 12.9645 25.25 14 25.25Z" fill="black"/>
</svg>
