<svg width="1920" height="990" viewBox="0 0 1920 990" fill="none" xmlns="http://www.w3.org/2000/svg">
<g opacity="0.7">
<path opacity="0.2" d="M1511.49 1456L1716.12 1251.79L1921 1047.57L1834.53 683.18L1490.44 1026.32L1146.35 1369.71L1511.49 1456Z" stroke="#617F90" stroke-width="2" stroke-miterlimit="10"/>
<path opacity="0.2" d="M407.544 -466L203.145 -261.788L-1 -57.5748L85.2617 306.819L428.541 -36.5718L771.819 -379.963L407.544 -466Z" stroke="#617F90" stroke-width="2" stroke-miterlimit="10"/>
<path opacity="0.2" d="M-1 1047.57L203.145 1251.79L407.544 1456L771.819 1369.71L428.541 1026.32L85.2617 683.18L-1 1047.57Z" stroke="#617F90" stroke-width="2" stroke-miterlimit="10"/>
<path opacity="0.2" d="M1921 -57.5748L1716.12 -261.788L1511.49 -466L1146.35 -379.963L1490.44 -36.5718L1834.53 306.819L1921 -57.5748Z" stroke="#617F90" stroke-width="2" stroke-miterlimit="10"/>
<path opacity="0.2" d="M1122.7 -122.719H959.086H795.472L684.123 56.3271H959.086H1234.05L1122.7 -122.719Z" stroke="#617F90" stroke-width="2" stroke-miterlimit="10"/>
<path opacity="0.2" d="M795.472 1102.72H959.086H1122.7L1234.05 920.019H959.086H684.123L795.472 1102.72Z" stroke="#617F90" stroke-width="2" stroke-miterlimit="10"/>
<path opacity="0.2" d="M1617.72 659.158V495V330.842L1435.02 219.124V495V770.876L1617.72 659.158Z" stroke="#617F90" stroke-width="2" stroke-miterlimit="10"/>
<path opacity="0.2" d="M302.281 330.842V495V659.158L481.327 770.876V495V219.124L302.281 330.842Z" stroke="#617F90" stroke-width="2" stroke-miterlimit="10"/>
</g>
</svg>
