<svg width="26" height="27" viewBox="0 0 26 27" fill="none" xmlns="http://www.w3.org/2000/svg">
<path fill-rule="evenodd" clip-rule="evenodd" d="M13 23.25C18.3848 23.25 22.75 18.8848 22.75 13.5C22.75 8.11522 18.3848 3.75 13 3.75C7.61522 3.75 3.25 8.11522 3.25 13.5C3.25 18.8848 7.61522 23.25 13 23.25ZM13 24.875C19.2822 24.875 24.375 19.7822 24.375 13.5C24.375 7.21776 19.2822 2.125 13 2.125C6.71776 2.125 1.625 7.21776 1.625 13.5C1.625 19.7822 6.71776 24.875 13 24.875Z" fill="#617F90"/>
<path fill-rule="evenodd" clip-rule="evenodd" d="M13 7C13.4487 7 13.8125 7.36377 13.8125 7.8125V13.1232L17.64 16.991C17.9557 17.3099 17.953 17.8244 17.634 18.14C17.3151 18.4557 16.8006 18.453 16.485 18.134L12.4225 14.0287C12.2719 13.8766 12.1875 13.6713 12.1875 13.4572V7.8125C12.1875 7.36377 12.5513 7 13 7Z" fill="#617F90"/>
</svg>
