<svg width="24" height="28" viewBox="0 0 24 28" fill="none" xmlns="http://www.w3.org/2000/svg">
<path d="M8.25 11.1875C8.25 10.6697 8.66973 10.25 9.1875 10.25C9.70527 10.25 10.125 10.6697 10.125 11.1875V20.5625C10.125 21.0803 9.70527 21.5 9.1875 21.5C8.66973 21.5 8.25 21.0803 8.25 20.5625V11.1875Z" fill="#617F90"/>
<path d="M14.8125 10.25C14.2947 10.25 13.875 10.6697 13.875 11.1875V20.5625C13.875 21.0803 14.2947 21.5 14.8125 21.5C15.3303 21.5 15.75 21.0803 15.75 20.5625V11.1875C15.75 10.6697 15.3303 10.25 14.8125 10.25Z" fill="#617F90"/>
<path fill-rule="evenodd" clip-rule="evenodd" d="M16.6875 4.625C16.6875 2.55393 15.0086 0.875 12.9375 0.875H11.0625C8.99143 0.875 7.3125 2.55393 7.3125 4.625H1.6875C1.16973 4.625 0.75 5.04473 0.75 5.5625C0.75 6.08027 1.16973 6.5 1.6875 6.5L2.625 6.5V23.375C2.625 25.4461 4.30393 27.125 6.375 27.125H17.625C19.6961 27.125 21.375 25.4461 21.375 23.375V6.5H22.3125C22.8303 6.5 23.25 6.08027 23.25 5.5625C23.25 5.04473 22.8303 4.625 22.3125 4.625H16.6875ZM12.9375 2.75H11.0625C10.027 2.75 9.1875 3.58947 9.1875 4.625H14.8125C14.8125 3.58947 13.973 2.75 12.9375 2.75ZM19.5 6.5H4.5V23.375C4.5 24.4105 5.33947 25.25 6.375 25.25H17.625C18.6605 25.25 19.5 24.4105 19.5 23.375V6.5Z" fill="#617F90"/>
</svg>
