<svg width="18" height="22" viewBox="0 0 18 22" fill="none" xmlns="http://www.w3.org/2000/svg">
<path d="M6 8.75C6 8.33579 6.33579 8 6.75 8C7.16421 8 7.5 8.33579 7.5 8.75V16.25C7.5 16.6642 7.16421 17 6.75 17C6.33579 17 6 16.6642 6 16.25V8.75Z" fill="#BFCACC"/>
<path d="M11.25 8C10.8358 8 10.5 8.33579 10.5 8.75V16.25C10.5 16.6642 10.8358 17 11.25 17C11.6642 17 12 16.6642 12 16.25V8.75C12 8.33579 11.6642 8 11.25 8Z" fill="#BFCACC"/>
<path fill-rule="evenodd" clip-rule="evenodd" d="M12.75 3.5C12.75 1.84315 11.4069 0.5 9.75 0.5H8.25C6.59315 0.5 5.25 1.84315 5.25 3.5H0.75C0.335786 3.5 0 3.83579 0 4.25C0 4.66421 0.335787 5 0.75 5L1.5 5V18.5C1.5 20.1569 2.84315 21.5 4.5 21.5H13.5C15.1569 21.5 16.5 20.1569 16.5 18.5V5H17.25C17.6642 5 18 4.66421 18 4.25C18 3.83579 17.6642 3.5 17.25 3.5H12.75ZM9.75 2H8.25C7.42157 2 6.75 2.67157 6.75 3.5H11.25C11.25 2.67157 10.5784 2 9.75 2ZM15 5H3V18.5C3 19.3284 3.67157 20 4.5 20H13.5C14.3284 20 15 19.3284 15 18.5V5Z" fill="#BFCACC"/>
</svg>
