<svg width="20" height="20" viewBox="0 0 20 20" fill="none" xmlns="http://www.w3.org/2000/svg">
<path fill-rule="evenodd" clip-rule="evenodd" d="M14 4.61538C14 7.16439 11.9853 9.23077 9.5 9.23077C7.01472 9.23077 5 7.16439 5 4.61538C5 2.06638 7.01472 0 9.5 0C11.9853 0 14 2.06638 14 4.61538ZM12.5 4.61538C12.5 6.31472 11.1569 7.69231 9.5 7.69231C7.84315 7.69231 6.5 6.31472 6.5 4.61538C6.5 2.91605 7.84315 1.53846 9.5 1.53846C11.1569 1.53846 12.5 2.91605 12.5 4.61538Z" fill="white"/>
<path fill-rule="evenodd" clip-rule="evenodd" d="M17 15.3846C17 17.9336 13.6421 20 9.5 20C5.35786 20 2 17.9336 2 15.3846C2 12.8356 5.35786 10.7692 9.5 10.7692C13.6421 10.7692 17 12.8356 17 15.3846ZM15.5 15.3846C15.5 15.9064 15.1485 16.6416 14.0316 17.329C12.9445 17.9979 11.3459 18.4615 9.5 18.4615C7.65405 18.4615 6.05549 17.9979 4.96844 17.329C3.85154 16.6416 3.5 15.9064 3.5 15.3846C3.5 14.8628 3.85154 14.1276 4.96844 13.4403C6.05549 12.7713 7.65405 12.3077 9.5 12.3077C11.3459 12.3077 12.9445 12.7713 14.0316 13.4403C15.1485 14.1276 15.5 14.8628 15.5 15.3846Z" fill="white"/>
</svg>
