<svg width="22" height="22" viewBox="0 0 22 22" fill="none" xmlns="http://www.w3.org/2000/svg">
<path d="M10.5416 12.8441C8.66552 12.7569 6.76798 13.206 5.11269 14.1916C3.81582 14.9638 0.415504 16.5406 2.48652 18.5137C3.4982 19.4775 4.62495 20.1668 6.04155 20.1668H10.9999" stroke="black" stroke-width="1.6" stroke-linecap="round" stroke-linejoin="round"/>
<path d="M14.2083 5.9585C14.2083 8.23667 12.3614 10.0835 10.0833 10.0835C7.80508 10.0835 5.95825 8.23667 5.95825 5.9585C5.95825 3.68032 7.80508 1.8335 10.0833 1.8335C12.3614 1.8335 14.2083 3.68032 14.2083 5.9585Z" stroke="black" stroke-width="1.6"/>
<path d="M16.4999 18.9879V20.1665M16.4999 18.9879C15.4395 18.9879 14.5053 18.4671 13.9574 17.6762M16.4999 18.9879C17.5603 18.9879 18.4945 18.4671 19.0425 17.6762M13.9574 17.6762L12.8336 18.3986M13.9574 17.6762C13.6333 17.2084 13.4444 16.6462 13.4444 16.0415C13.4444 15.4368 13.6332 14.8747 13.9573 14.407M19.0425 17.6762L20.1662 18.3986M19.0425 17.6762C19.3665 17.2084 19.5554 16.6462 19.5554 16.0415C19.5554 15.4368 19.3666 14.8747 19.0426 14.407M16.4999 13.0951C17.5604 13.0951 18.4947 13.616 19.0426 14.407M16.4999 13.0951C15.4394 13.0951 14.5052 13.616 13.9573 14.407M16.4999 13.0951V11.9165M19.0426 14.407L20.1666 13.6844M13.9573 14.407L12.8333 13.6844" stroke="black" stroke-width="1.6" stroke-linecap="round"/>
</svg>
