<svg width="20" height="20" viewBox="0 0 20 20" fill="none" xmlns="http://www.w3.org/2000/svg">
<path d="M4.43475 8.06878C6.44615 4.50966 7.45184 2.7301 8.83191 2.27201C9.59108 2.02001 10.4089 2.02001 11.1681 2.27201C12.5482 2.7301 13.5538 4.50966 15.5652 8.06878C17.5767 11.6279 18.5823 13.4074 18.2807 14.8574C18.1147 15.6552 17.7057 16.3787 17.1125 16.9244C16.0342 17.9164 14.0228 17.9164 9.99999 17.9164C5.9772 17.9164 3.9658 17.9164 2.88746 16.9244C2.29423 16.3787 1.88532 15.6552 1.71934 14.8574C1.41765 13.4074 2.42335 11.6279 4.43475 8.06878Z" stroke="white" stroke-width="1.5"/>
<path d="M9.99335 13.333H10.0008" stroke="white" stroke-width="2" stroke-linecap="round" stroke-linejoin="round"/>
<path d="M10 10.8334V7.5" stroke="white" stroke-width="1.5" stroke-linecap="round" stroke-linejoin="round"/>
</svg>
